<svg width="48" height="48" viewBox="0 0 48 48" fill="none" xmlns="http://www.w3.org/2000/svg">
<path d="M13.4902 37.4356C15.9492 37.4356 17.9434 39.4093 17.9434 41.8438C17.9431 44.2782 15.9491 46.252 13.4902 46.252C11.0315 46.2519 9.03832 44.2781 9.03809 41.8438C9.03809 39.4094 11.0314 37.4358 13.4902 37.4356ZM32.29 37.4356C34.7491 37.4356 36.7432 39.4093 36.7432 41.8438C36.7429 44.2782 34.7489 46.252 32.29 46.252C29.8313 46.2519 27.8381 44.2781 27.8379 41.8438C27.8379 39.4094 29.8312 37.4358 32.29 37.4356ZM21.3789 2.18271C21.9495 2.1786 22.5121 2.31439 23.0166 2.57822C23.5211 2.84204 23.9523 3.22555 24.2705 3.69443C24.5886 4.16319 24.7847 4.70275 24.8408 5.26474C24.8969 5.82691 24.8112 6.39464 24.5918 6.91611C24.3724 7.43745 24.0255 7.8966 23.583 8.25302C24.8997 9.53082 25.6988 11.2417 25.8291 13.0626C27.052 14.2414 27.954 15.7078 28.4512 17.3243C31.0634 17.6672 37.3555 19.3428 37.3555 27.6397C37.3556 27.9981 37.5 28.3414 37.7559 28.5948C38.0119 28.8483 38.3596 28.9913 38.7217 28.9913C39.0837 28.9912 39.4306 28.8482 39.6865 28.5948C39.9424 28.3414 40.0868 27.9981 40.0869 27.6397C40.0869 16.1595 30.1835 14.7381 27.8379 14.5616V14.0919C27.8379 12.4889 28.4811 10.951 29.626 9.81747C30.7708 8.6842 32.3235 8.04794 33.9424 8.04794C36.7775 8.04794 39.4975 9.15963 41.5059 11.1407C43.5142 13.1218 44.6477 15.8105 44.6582 18.6173V25.4747C44.6582 28.1154 43.6031 30.6489 41.7236 32.5226C39.8441 34.3963 37.2922 35.4576 34.625 35.4757H22.96V35.3878C22.7969 35.4191 22.6309 35.4354 22.4648 35.4366H19.4971C18.8412 35.4366 18.2119 35.1789 17.748 34.7198C17.2843 34.2607 17.0236 33.6377 17.0234 32.9884C17.0234 32.3389 17.2842 31.7152 17.748 31.2559C18.2119 30.7969 18.8412 30.5392 19.4971 30.5392H22.4648C22.6309 30.5404 22.7969 30.5566 22.96 30.588V26.1798C22.9574 25.7779 22.7949 25.3927 22.5078 25.1085C22.2208 24.8244 21.8317 24.6638 21.4258 24.6612H9.65137C9.24571 24.6639 8.85723 24.8246 8.57031 25.1085C8.28326 25.3927 8.12076 25.7779 8.11816 26.1798V28.1388C8.42537 28.3669 8.67495 28.663 8.84668 29.003C9.0183 29.3429 9.10736 29.7177 9.10742 30.0977V33.0372C9.10734 33.6866 8.84663 34.3094 8.38281 34.7686C7.91895 35.2278 7.28973 35.4854 6.63379 35.4854C5.97786 35.4854 5.34858 35.2279 4.88477 34.7686C4.42101 34.3094 4.16023 33.6866 4.16016 33.0372V30.0977C4.16094 29.4838 4.39581 28.8927 4.81738 28.4425C5.23925 27.9921 5.81793 27.7159 6.43652 27.669C5.15759 26.7836 4.10612 25.613 3.36719 24.252C2.62827 22.891 2.222 21.3768 2.18164 19.8321C2.19768 18.5652 2.46888 17.3136 2.97852 16.1515C3.48814 14.9895 4.22661 13.9391 5.15039 13.0626C5.28074 11.2418 6.07884 9.5308 7.39551 8.25302C6.95316 7.89668 6.60706 7.43727 6.3877 6.91611C6.16828 6.39464 6.08257 5.82691 6.13867 5.26474C6.1948 4.70267 6.39081 4.16323 6.70898 3.69443C7.02716 3.22564 7.45752 2.84204 7.96191 2.57822C8.46632 2.31445 9.02919 2.17867 9.59961 2.18271C10.1701 2.18681 10.7309 2.33069 11.2314 2.60165C11.732 2.87268 12.1574 3.26212 12.4688 3.73544C12.7801 4.20885 12.9678 4.75162 13.0156 5.31454C14.6474 4.98032 16.3312 4.98033 17.9629 5.31454C18.0107 4.75162 18.1984 4.20885 18.5098 3.73544C18.8211 3.26204 19.2465 2.87271 19.7471 2.60165C20.2477 2.33059 20.8083 2.18681 21.3789 2.18271ZM11.5713 16.8634C11.0465 16.8634 10.543 17.0702 10.1719 17.4376C9.8008 17.805 9.59277 18.3037 9.59277 18.8233C9.59286 19.3427 9.80098 19.8408 10.1719 20.2081C10.543 20.5755 11.0465 20.7823 11.5713 20.7823H13.4316C13.8721 20.7825 14.2999 20.637 14.6475 20.3692C14.9952 20.1013 15.2426 19.7258 15.3506 19.3028C15.4244 19.0137 15.4311 18.7118 15.3691 18.42C15.3072 18.1282 15.1783 17.8545 14.9932 17.6192C14.8081 17.384 14.5714 17.1934 14.3008 17.0626C14.0302 16.9318 13.7328 16.8633 13.4316 16.8634H11.5713ZM10.6201 12.3038C10.3622 12.2536 10.095 12.2805 9.85254 12.3809C9.60987 12.4815 9.40274 12.6519 9.25781 12.8692C9.11299 13.0865 9.03616 13.3413 9.03809 13.6017C9.04068 13.9464 9.18053 14.2768 9.42676 14.5206C9.67296 14.7642 10.0064 14.9018 10.3545 14.9044C10.6175 14.9063 10.8752 14.831 11.0947 14.6876C11.3143 14.5441 11.4853 14.339 11.5869 14.0987C11.6885 13.8585 11.7159 13.5935 11.665 13.338C11.6142 13.0827 11.4876 12.8482 11.3018 12.6642C11.1157 12.48 10.8782 12.3541 10.6201 12.3038ZM15.3721 12.3038C15.114 12.3541 14.8764 12.48 14.6904 12.6642C14.5046 12.8482 14.378 13.0827 14.3271 13.338C14.2763 13.5935 14.3037 13.8585 14.4053 14.0987C14.5068 14.339 14.6779 14.5441 14.8975 14.6876C15.117 14.831 15.3747 14.9063 15.6377 14.9044C15.9858 14.9018 16.3192 14.7642 16.5654 14.5206C16.8117 14.2768 16.9515 13.9464 16.9541 13.6017C16.956 13.3413 16.8792 13.0865 16.7344 12.8692C16.5894 12.6519 16.3823 12.4815 16.1396 12.3809C15.8972 12.2805 15.63 12.2536 15.3721 12.3038Z" fill="#F9502E"/>
</svg>
