<svg width="161" height="100" viewBox="0 0 161 100" fill="none" xmlns="http://www.w3.org/2000/svg">
<circle cx="139.74" cy="83.4358" r="9.98658" fill="#242945"/>
<path d="M54.3711 80.5371H145.539C145.539 83.3838 143.231 85.6915 140.385 85.6915H59.5255C56.6788 85.6915 54.3711 83.3838 54.3711 80.5371Z" fill="#242945"/>
<path d="M16.6797 33.1808C16.6797 27.4874 21.2951 22.8721 26.9884 22.8721H48.5723V75.3821C48.5723 78.2288 46.2646 80.5365 43.4179 80.5365H26.9884C21.2951 80.5365 16.6797 75.9211 16.6797 70.2278V33.1808Z" fill="#FEEEEA"/>
<path d="M6.04883 50.5763C6.04883 44.883 10.6642 40.2676 16.3576 40.2676H32.7871V75.3817C32.7871 78.2283 30.4794 80.536 27.6327 80.536H16.3575C10.6642 80.536 6.04883 75.9207 6.04883 70.2273V50.5763Z" fill="#FEEEEA"/>
<path d="M48.25 6.44296C48.25 2.88461 51.1346 0 54.693 0H150.049C153.607 0 156.492 2.88461 156.492 6.44295V75.3825C156.492 78.2292 154.184 80.5369 151.337 80.5369H53.4044C50.5577 80.5369 48.25 78.2292 48.25 75.3825V6.44296Z" fill="#F9502E"/>
<circle cx="29.2424" cy="83.4358" r="9.98658" fill="#242945"/>
<rect x="67.4492" y="27.2002" width="71.2" height="8" rx="4" fill="#FD947F"/>
<rect x="67.4492" y="41.5996" width="71.2" height="8" rx="4" fill="#FD947F"/>
<rect x="67.4492" y="56" width="71.2" height="8" rx="4" fill="#FD947F"/>
<path d="M19.9004 33.8253C19.9004 29.5553 23.3619 26.0938 27.6319 26.0938H42.7729C44.1962 26.0938 45.3501 27.2476 45.3501 28.6709V41.2347C45.3501 42.658 44.1962 43.8119 42.7729 43.8119H22.4776C21.0542 43.8119 19.9004 42.658 19.9004 41.2347V33.8253Z" fill="#242945"/>
<circle cx="6.04866" cy="60.5633" r="5.79866" fill="#F9502E"/>
</svg>
