<svg width="160" height="160" viewBox="0 0 160 160" fill="none" xmlns="http://www.w3.org/2000/svg">
<rect width="160" height="160" rx="6" fill="#F7F7F7"/>
<path fill-rule="evenodd" clip-rule="evenodd" d="M86.6673 71.2499C85.5167 71.2499 84.584 72.1827 84.584 73.3333C84.584 74.4838 85.5167 75.4166 86.6673 75.4166C87.8179 75.4166 88.7507 74.4838 88.7507 73.3333C88.7507 72.1827 87.8179 71.2499 86.6673 71.2499ZM82.084 73.3333C82.084 70.8019 84.136 68.7499 86.6673 68.7499C89.1986 68.7499 91.2507 70.8019 91.2507 73.3333C91.2507 75.8646 89.1986 77.9166 86.6673 77.9166C84.136 77.9166 82.084 75.8646 82.084 73.3333Z" fill="#C4C4C4"/>
<path fill-rule="evenodd" clip-rule="evenodd" d="M79.905 62.0833H80.0963C83.9436 62.0832 86.9587 62.0832 89.3111 62.3995C91.719 62.7232 93.6191 63.3988 95.1104 64.8901C96.6018 66.3815 97.2773 68.2815 97.6011 70.6894C97.9174 73.0419 97.9173 76.057 97.9173 79.9043V80.0955C97.9173 83.9429 97.9174 86.9579 97.6011 89.3104C97.2773 91.7183 96.6018 93.6183 95.1104 95.1097C93.6191 96.601 91.719 97.2766 89.3111 97.6003C86.9587 97.9166 83.9436 97.9166 80.0963 97.9166H79.905C76.0577 97.9166 73.0426 97.9166 70.6902 97.6003C68.2823 97.2766 66.3822 96.601 64.8909 95.1097C63.3995 93.6183 62.724 91.7183 62.4002 89.3104C62.0839 86.9579 62.084 83.9429 62.084 80.0955V79.9043C62.084 76.057 62.0839 73.0419 62.4002 70.6894C62.724 68.2815 63.3995 66.3815 64.8909 64.8901C66.3822 63.3988 68.2823 62.7232 70.6902 62.3995C73.0426 62.0832 76.0577 62.0832 79.905 62.0833ZM66.6586 93.3419C65.7092 92.3925 65.1644 91.108 64.8779 88.9773C64.6221 87.0747 64.5889 84.6475 64.5846 81.4001L67.0764 79.2198C68.1 78.3242 69.6426 78.3756 70.6042 79.3373L77.7538 86.4868C79.3287 88.0618 81.8078 88.2765 83.6301 86.9958L84.1271 86.6466C85.5574 85.6414 87.4925 85.7578 88.7919 86.9273L94.1644 91.7626C94.2229 91.8152 94.285 91.8613 94.3498 91.9009C94.0804 92.4691 93.7485 92.9361 93.3427 93.3419C92.3932 94.2914 91.1087 94.8362 88.978 95.1226C86.8114 95.4139 83.9644 95.4166 80.0007 95.4166C76.0369 95.4166 73.1899 95.4139 71.0233 95.1226C68.8926 94.8362 67.6081 94.2914 66.6586 93.3419ZM71.0233 64.8772C68.8926 65.1637 67.6081 65.7085 66.6586 66.6579C65.7092 67.6073 65.1644 68.8919 64.8779 71.0225C64.636 72.8217 64.5932 75.09 64.5856 78.0774L65.4302 77.3384C67.4442 75.5761 70.4797 75.6772 72.372 77.5695L79.5216 84.7191C80.2374 85.4349 81.3643 85.5326 82.1926 84.9504L82.6896 84.6012C85.0734 82.9258 88.2986 83.1199 90.4643 85.0691L95.0876 89.23C95.0999 89.1471 95.1119 89.0629 95.1234 88.9773C95.4147 86.8107 95.4173 83.9636 95.4173 79.9999C95.4173 76.0362 95.4147 73.1892 95.1234 71.0225C94.8369 68.8919 94.2921 67.6073 93.3427 66.6579C92.3932 65.7085 91.1087 65.1637 88.978 64.8772C86.8114 64.5859 83.9644 64.5833 80.0007 64.5833C76.0369 64.5833 73.1899 64.5859 71.0233 64.8772Z" fill="#C4C4C4"/>
</svg>
