<svg width="317" height="132" viewBox="0 0 317 132" fill="none" xmlns="http://www.w3.org/2000/svg">
<path d="M0 68.8764C0 65.4832 2.75076 62.7324 6.144 62.7324H69.12C72.5132 62.7324 75.264 65.4832 75.264 68.8764V131.468H0V68.8764Z" fill="#FEEEEA"/>
<path d="M62.3281 6.47799C62.3281 3.08475 65.0789 0.333984 68.4721 0.333984H131.448C134.841 0.333984 137.592 3.08475 137.592 6.47798V86.734H62.3281V6.47799Z" fill="#FEEEEA"/>
<path d="M241.656 79.0542C241.656 75.6609 244.407 72.9102 247.8 72.9102H310.776C314.169 72.9102 316.92 75.6609 316.92 79.0542V131.278H241.656V79.0542Z" fill="#FEEEEA"/>
<path d="M195.961 38.8682C195.961 37.6247 196.71 36.504 197.86 36.0291L232.42 21.7466C233.171 21.4361 234.015 21.4361 234.766 21.7466L269.326 36.0291C270.475 36.504 271.225 37.6248 271.225 38.8682V131.278H195.961V38.8682Z" fill="#F96C44"/>
<path d="M45.4316 42.9584C45.4316 39.5652 48.1824 36.8145 51.5756 36.8145H114.552C117.945 36.8145 120.696 39.5652 120.696 42.9585V131.278H45.4316V42.9584Z" fill="#F96C44"/>
<path d="M120.695 61.7732C120.695 60.0766 122.071 58.7012 123.767 58.7012H192.887C194.584 58.7012 195.959 60.0766 195.959 61.7732V131.277H120.695V61.7732Z" fill="#F96C44"/>
<rect x="120.695" y="11.8535" width="75.264" height="70.272" rx="6.144" fill="#F96C44"/>
<rect x="53.8789" y="46.0293" width="26.88" height="12.672" rx="3.072" fill="#F88652"/>
<rect x="53.8809" y="64.0781" width="26.88" height="12.672" rx="3.072" fill="#F88652"/>
<rect x="53.8809" y="82.127" width="26.88" height="12.672" rx="3.072" fill="#F88652"/>
<rect x="53.8789" y="100.174" width="26.88" height="12.672" rx="3.072" fill="#F88652"/>
<rect x="85.3672" y="46.0293" width="26.88" height="12.672" rx="3.072" fill="#F88652"/>
<rect x="206.328" y="46.0293" width="54.528" height="12.672" rx="3.072" fill="#F88652"/>
<rect x="206.328" y="64.0781" width="54.528" height="12.672" rx="3.072" fill="#F88652"/>
<rect x="206.328" y="82.127" width="54.528" height="12.672" rx="3.072" fill="#F88652"/>
<rect x="206.328" y="100.174" width="54.528" height="12.672" rx="3.072" fill="#F88652"/>
<rect x="85.3672" y="64.0781" width="26.88" height="12.672" rx="3.072" fill="#F88652"/>
<rect x="85.3672" y="82.127" width="26.88" height="12.672" rx="3.072" fill="#F88652"/>
<rect x="85.3672" y="100.174" width="26.88" height="12.672" rx="3.072" fill="#F88652"/>
<path d="M129.912 34.5101C129.912 30.2685 133.351 26.8301 137.592 26.8301C141.834 26.8301 145.272 30.2685 145.272 34.5101V43.7261C145.272 45.4227 143.897 46.7981 142.2 46.7981H132.984C131.287 46.7981 129.912 45.4227 129.912 43.7261V34.5101Z" fill="#F88652"/>
<path d="M129.912 60.6214C129.912 56.3799 133.351 52.9414 137.592 52.9414C141.834 52.9414 145.272 56.3799 145.272 60.6214V69.8374C145.272 71.534 143.897 72.9094 142.2 72.9094H132.984C131.287 72.9094 129.912 71.534 129.912 69.8374V60.6214Z" fill="#F88652"/>
<path d="M129.912 86.7327C129.912 82.4912 133.351 79.0527 137.592 79.0527C141.834 79.0527 145.272 82.4912 145.272 86.7327V95.9487C145.272 97.6454 143.897 99.0207 142.2 99.0207H132.984C131.287 99.0207 129.912 97.6454 129.912 95.9487V86.7327Z" fill="#F88652"/>
<path d="M150.648 34.5101C150.648 30.2685 154.087 26.8301 158.328 26.8301C162.57 26.8301 166.008 30.2685 166.008 34.5101V43.7261C166.008 45.4227 164.633 46.7981 162.936 46.7981H153.72C152.024 46.7981 150.648 45.4227 150.648 43.7261V34.5101Z" fill="#F88652"/>
<path d="M150.648 60.6214C150.648 56.3799 154.087 52.9414 158.328 52.9414C162.57 52.9414 166.008 56.3799 166.008 60.6214V69.8374C166.008 71.534 164.633 72.9094 162.936 72.9094H153.72C152.024 72.9094 150.648 71.534 150.648 69.8374V60.6214Z" fill="#F88652"/>
<path d="M150.648 86.7327C150.648 82.4912 154.087 79.0527 158.328 79.0527C162.57 79.0527 166.008 82.4912 166.008 86.7327V95.9487C166.008 97.6454 164.633 99.0207 162.936 99.0207H153.72C152.024 99.0207 150.648 97.6454 150.648 95.9487V86.7327Z" fill="#F88652"/>
<path d="M171.385 34.5101C171.385 30.2685 174.823 26.8301 179.065 26.8301C183.306 26.8301 186.745 30.2685 186.745 34.5101V43.7261C186.745 45.4227 185.369 46.7981 183.673 46.7981H174.457C172.76 46.7981 171.385 45.4227 171.385 43.7261V34.5101Z" fill="#F88652"/>
<path d="M171.383 60.6214C171.383 56.3799 174.821 52.9414 179.063 52.9414C183.304 52.9414 186.743 56.3799 186.743 60.6214V69.8374C186.743 71.534 185.367 72.9094 183.671 72.9094H174.455C172.758 72.9094 171.383 71.534 171.383 69.8374V60.6214Z" fill="#F88652"/>
<path d="M171.385 86.7327C171.385 82.4912 174.823 79.0527 179.065 79.0527C183.306 79.0527 186.745 82.4912 186.745 86.7327V95.9487C186.745 97.6454 185.369 99.0207 183.673 99.0207H174.457C172.76 99.0207 171.385 97.6454 171.385 95.9487V86.7327Z" fill="#F88652"/>
</svg>
