<svg width="467" height="264" viewBox="0 0 467 264" fill="none" xmlns="http://www.w3.org/2000/svg">
<circle cx="433" cy="259" r="31" fill="#242945"/>
<path d="M51 103C51 85.3269 65.3269 71 83 71H150V234C150 242.837 142.837 250 134 250H83C65.3269 250 51 235.673 51 218V103Z" fill="#FEEEEA"/>
<path d="M18 157C18 139.327 32.3269 125 50 125H101V234C101 242.837 93.8366 250 85 250H50C32.3269 250 18 235.673 18 218V157Z" fill="#FEEEEA"/>
<path d="M150 20C150 8.9543 158.954 0 170 0H466C477.046 0 486 8.9543 486 20V234C486 242.837 478.837 250 470 250H166C157.163 250 150 242.837 150 234V20Z" fill="#F9502E"/>
<circle cx="90" cy="259" r="31" fill="#242945"/>
<path d="M233.986 142.914C237.265 142.914 239.923 145.546 239.923 148.792C239.923 152.037 237.265 154.668 233.986 154.669C230.708 154.669 228.05 152.038 228.05 148.792C228.05 145.546 230.708 142.914 233.986 142.914ZM259.053 142.914C262.331 142.914 264.989 145.546 264.989 148.792C264.989 152.037 262.331 154.668 259.053 154.669C255.774 154.669 253.116 152.038 253.116 148.792C253.116 145.546 255.774 142.914 259.053 142.914ZM244.503 95.9098C245.264 95.9044 246.014 96.0854 246.687 96.4371C247.359 96.7889 247.933 97.3004 248.357 97.9254C248.782 98.5506 249.043 99.2706 249.118 100.02C249.193 100.77 249.079 101.526 248.786 102.221C248.494 102.917 248.032 103.529 247.441 104.005C249.197 105.708 250.263 107.99 250.437 110.418C252.067 111.989 253.269 113.944 253.932 116.099C257.414 116.556 265.805 118.79 265.805 129.852C265.805 130.33 265.997 130.789 266.339 131.127C266.68 131.465 267.143 131.655 267.626 131.655C268.109 131.655 268.572 131.465 268.913 131.127C269.254 130.789 269.446 130.33 269.446 129.852C269.446 114.545 256.241 112.651 253.114 112.416V111.789C253.114 109.651 253.972 107.602 255.498 106.09C257.025 104.579 259.095 103.73 261.254 103.73C265.034 103.73 268.66 105.213 271.338 107.854C274.016 110.496 275.527 114.08 275.541 117.823V126.966C275.541 130.487 274.135 133.865 271.629 136.363C269.123 138.861 265.72 140.277 262.164 140.301H246.61V140.184C246.393 140.226 246.172 140.248 245.95 140.25H241.993C241.118 140.25 240.28 139.905 239.661 139.293C239.043 138.68 238.695 137.85 238.695 136.984C238.695 136.118 239.043 135.288 239.661 134.675C240.28 134.063 241.118 133.718 241.993 133.718H245.95C246.172 133.72 246.393 133.742 246.61 133.784V127.906C246.607 127.37 246.39 126.857 246.008 126.478C245.625 126.099 245.107 125.885 244.565 125.881H228.866C228.325 125.885 227.807 126.1 227.425 126.478C227.042 126.857 226.825 127.37 226.821 127.906V130.518C227.231 130.822 227.564 131.217 227.793 131.671C228.022 132.124 228.141 132.624 228.141 133.13V137.049C228.141 137.915 227.793 138.746 227.175 139.358C226.556 139.97 225.717 140.314 224.843 140.314C223.968 140.314 223.129 139.97 222.511 139.358C221.892 138.746 221.545 137.915 221.545 137.049V133.13C221.546 132.312 221.858 131.523 222.421 130.922C222.983 130.322 223.754 129.954 224.579 129.891C222.874 128.71 221.472 127.15 220.486 125.336C219.501 123.521 218.96 121.503 218.906 119.443C218.928 117.754 219.288 116.085 219.968 114.536C220.647 112.986 221.632 111.586 222.864 110.418C223.038 107.99 224.103 105.708 225.858 104.005C225.268 103.529 224.806 102.917 224.514 102.221C224.221 101.526 224.107 100.77 224.182 100.02C224.256 99.2706 224.518 98.5506 224.942 97.9254C225.367 97.3004 225.941 96.7889 226.613 96.4371C227.286 96.0854 228.037 95.9043 228.798 95.9098C229.558 95.9153 230.306 96.107 230.974 96.4684C231.641 96.8298 232.207 97.3499 232.622 97.9811C233.037 98.6122 233.288 99.3352 233.352 100.086C235.527 99.6399 237.773 99.6399 239.948 100.086C240.012 99.3352 240.263 98.6122 240.678 97.9811C241.093 97.3499 241.66 96.8298 242.327 96.4684C242.995 96.1071 243.742 95.9153 244.503 95.9098ZM231.426 115.485C230.726 115.485 230.055 115.761 229.561 116.251C229.066 116.74 228.787 117.405 228.787 118.097C228.787 118.79 229.066 119.455 229.561 119.945C230.055 120.435 230.726 120.71 231.426 120.71H233.906C234.494 120.71 235.065 120.516 235.528 120.159C235.992 119.802 236.321 119.301 236.465 118.737C236.563 118.352 236.572 117.949 236.489 117.56C236.407 117.171 236.235 116.805 235.988 116.492C235.741 116.178 235.425 115.924 235.064 115.75C234.704 115.575 234.308 115.485 233.906 115.485H231.426ZM230.158 109.406C229.814 109.339 229.457 109.374 229.134 109.508C228.81 109.643 228.534 109.869 228.341 110.159C228.148 110.448 228.046 110.788 228.049 111.135C228.052 111.595 228.238 112.035 228.566 112.36C228.895 112.685 229.339 112.869 229.803 112.873C230.153 112.875 230.497 112.775 230.79 112.584C231.083 112.392 231.312 112.119 231.447 111.798C231.583 111.478 231.618 111.125 231.551 110.785C231.483 110.444 231.314 110.131 231.066 109.885C230.818 109.64 230.502 109.473 230.158 109.406ZM237.518 109.508C237.194 109.374 236.837 109.339 236.493 109.406C236.149 109.473 235.833 109.64 235.585 109.885C235.337 110.131 235.168 110.444 235.101 110.785C235.033 111.125 235.069 111.478 235.204 111.798C235.34 112.119 235.568 112.392 235.86 112.584C236.153 112.775 236.497 112.875 236.848 112.873C237.312 112.869 237.757 112.685 238.085 112.36C238.413 112.035 238.599 111.595 238.603 111.135C238.605 110.788 238.504 110.448 238.311 110.159C238.117 109.869 237.841 109.643 237.518 109.508Z" fill="#F9502E"/>
<path d="M361.929 126.057C360.691 126.014 359.667 125.886 358.855 125.672C358.087 125.416 357.468 125.075 356.998 124.648C356.529 124.178 356.187 123.602 355.974 122.919C355.803 122.193 355.696 121.339 355.653 120.357C355.653 119.973 355.632 119.354 355.589 118.5C355.589 117.603 355.589 116.622 355.589 115.554C355.589 114.444 355.568 113.291 355.525 112.096C355.525 110.901 355.525 109.748 355.525 108.638C355.525 107.528 355.525 106.546 355.525 105.692C355.525 104.838 355.525 104.198 355.525 103.771C355.525 102.191 355.952 101.017 356.806 100.249C357.703 99.4377 358.791 99.0321 360.072 99.0321C361.438 99.0321 362.548 99.4377 363.402 100.249C364.299 101.017 364.747 102.213 364.747 103.835V106.333C365.558 106.333 366.519 106.333 367.629 106.333C368.739 106.333 369.87 106.333 371.023 106.333C372.176 106.333 373.307 106.333 374.417 106.333C375.527 106.333 376.487 106.333 377.299 106.333V103.451C377.299 101.957 377.747 100.847 378.643 100.121C379.54 99.395 380.65 99.0321 381.973 99.0321C383.254 99.0321 384.343 99.3737 385.239 100.057C386.136 100.74 386.584 101.786 386.584 103.195C386.584 103.75 386.584 104.838 386.584 106.461C386.627 108.04 386.648 109.748 386.648 111.584C386.648 113.42 386.648 115.17 386.648 116.835C386.648 118.457 386.627 119.589 386.584 120.229C386.542 121.211 386.414 122.065 386.2 122.791C385.987 123.474 385.624 124.05 385.111 124.52C384.599 124.947 383.895 125.288 382.998 125.544C382.102 125.8 380.928 125.95 379.476 125.993C378.366 126.078 377.064 126.142 375.57 126.185C374.118 126.185 372.602 126.206 371.023 126.249C369.486 126.249 367.928 126.249 366.348 126.249C364.768 126.206 363.295 126.142 361.929 126.057ZM364.747 117.219C364.79 117.902 364.918 118.308 365.131 118.436C365.345 118.564 365.814 118.649 366.54 118.692C367.906 118.735 369.358 118.756 370.895 118.756C372.432 118.756 373.819 118.713 375.057 118.628C375.527 118.585 375.911 118.564 376.21 118.564C376.509 118.521 376.744 118.479 376.914 118.436C377.085 118.351 377.192 118.222 377.235 118.052C377.32 117.838 377.363 117.561 377.363 117.219V113.313C376.552 113.313 375.591 113.313 374.481 113.313C373.371 113.27 372.218 113.249 371.023 113.249C369.87 113.249 368.739 113.27 367.629 113.313C366.519 113.313 365.558 113.313 364.747 113.313V117.219ZM372.88 140.209C372.88 138.288 373.222 136.559 373.905 135.022C374.63 133.485 375.612 132.183 376.85 131.116C378.131 130.048 379.668 129.237 381.461 128.682C383.254 128.127 385.239 127.85 387.417 127.85C389.423 127.85 391.259 128.127 392.924 128.682C394.632 129.237 396.083 130.048 397.279 131.116C398.517 132.183 399.477 133.485 400.161 135.022C400.844 136.516 401.185 138.245 401.185 140.209C401.185 141.96 400.865 143.582 400.225 145.076C399.627 146.57 398.73 147.873 397.535 148.983C396.34 150.093 394.888 150.968 393.18 151.608C391.515 152.249 389.594 152.569 387.417 152.569C385.239 152.569 383.254 152.249 381.461 151.608C379.711 150.968 378.195 150.093 376.914 148.983C375.634 147.873 374.63 146.57 373.905 145.076C373.222 143.582 372.88 141.96 372.88 140.209ZM382.358 140.081C382.358 141.319 382.806 142.344 383.703 143.155C384.599 143.923 385.773 144.308 387.225 144.308C388.719 144.308 389.914 143.923 390.811 143.155C391.75 142.344 392.22 141.319 392.22 140.081C392.22 138.715 391.771 137.669 390.875 136.943C389.978 136.175 388.762 135.791 387.225 135.791C385.773 135.791 384.599 136.153 383.703 136.879C382.806 137.562 382.358 138.63 382.358 140.081ZM395.486 102.874C395.4 101.081 395.742 99.7366 396.51 98.84C397.322 97.9008 398.517 97.4312 400.097 97.4312C401.548 97.4312 402.722 97.8794 403.619 98.776C404.558 99.6298 405.07 101.081 405.156 103.131C405.241 105.308 405.284 107.25 405.284 108.958C405.326 110.623 405.348 112.203 405.348 113.697C405.348 115.149 405.326 116.536 405.284 117.86C405.284 119.183 405.262 120.549 405.22 121.958C405.134 124.007 404.686 125.63 403.875 126.825C403.064 128.02 401.847 128.618 400.225 128.618C398.602 128.618 397.407 128.149 396.638 127.209C395.913 126.227 395.614 124.648 395.742 122.47C395.785 121.36 395.806 120.016 395.806 118.436C395.849 116.856 395.849 115.191 395.806 113.441C395.806 111.648 395.763 109.833 395.678 107.998C395.635 106.162 395.571 104.454 395.486 102.874Z" fill="#FEEEEA"/>
<path d="M326.136 152.185C324.898 152.185 323.724 151.758 322.614 150.904C321.546 150.05 320.97 148.79 320.885 147.125C320.885 146.613 320.863 145.994 320.821 145.268C320.821 144.543 320.799 143.753 320.757 142.899C320.757 142.045 320.757 141.148 320.757 140.209C320.757 139.27 320.757 138.331 320.757 137.391C317.64 137.349 314.609 137.285 311.663 137.199C308.76 137.114 306.134 136.965 303.786 136.751C301.822 136.58 300.456 136.111 299.688 135.342C298.919 134.531 298.578 133.506 298.663 132.268C298.749 131.03 299.154 130.027 299.88 129.259C300.648 128.447 302.057 128.084 304.107 128.17C307.565 128.298 311.151 128.405 314.865 128.49C318.622 128.533 322.358 128.554 326.072 128.554C329.829 128.554 333.543 128.533 337.215 128.49C340.886 128.405 344.387 128.277 347.717 128.106C349.894 128.02 351.41 128.426 352.264 129.323C353.16 130.176 353.609 131.265 353.609 132.589C353.609 133.827 353.267 134.787 352.584 135.47C351.944 136.111 350.812 136.516 349.19 136.687C347.311 136.901 344.814 137.071 341.697 137.199C338.624 137.285 335.251 137.349 331.579 137.391C331.537 138.758 331.494 140.167 331.451 141.618C331.451 143.027 331.451 144.308 331.451 145.46C331.451 146.613 331.28 147.595 330.939 148.406C330.64 149.26 330.234 149.964 329.722 150.519C329.252 151.074 328.697 151.48 328.057 151.736C327.417 152.035 326.776 152.185 326.136 152.185ZM304.363 115.618C304.363 113.996 304.363 112.651 304.363 111.584C304.363 110.516 304.363 109.599 304.363 108.83C304.405 108.019 304.427 107.293 304.427 106.653C304.469 106.012 304.533 105.287 304.619 104.475C304.747 103.067 305.195 102.021 305.964 101.338C306.732 100.612 307.992 100.228 309.742 100.185C312.432 100.142 315.185 100.099 318.003 100.057C320.863 100.014 323.702 99.9927 326.52 99.9927C329.338 99.95 332.092 99.95 334.781 99.9927C337.471 99.9927 340.011 100.057 342.402 100.185C344.152 100.27 345.412 100.654 346.18 101.338C346.949 102.021 347.397 103.067 347.525 104.475C347.568 105.287 347.61 106.012 347.653 106.653C347.696 107.293 347.717 108.019 347.717 108.83C347.76 109.599 347.781 110.516 347.781 111.584C347.781 112.651 347.781 113.996 347.781 115.618C347.781 117.155 347.674 118.457 347.461 119.525C347.29 120.549 346.906 121.403 346.308 122.086C345.711 122.727 344.857 123.218 343.747 123.559C342.637 123.901 341.142 124.135 339.264 124.263C337.642 124.349 335.742 124.413 333.564 124.456C331.387 124.498 329.103 124.52 326.712 124.52C324.321 124.52 321.909 124.498 319.476 124.456C317.085 124.413 314.886 124.37 312.88 124.328C311.001 124.285 309.507 124.093 308.397 123.751C307.287 123.41 306.433 122.897 305.836 122.214C305.238 121.488 304.832 120.592 304.619 119.525C304.448 118.457 304.363 117.155 304.363 115.618ZM314.033 109.791C313.99 110.602 313.969 111.264 313.969 111.776C314.011 112.246 314.054 112.886 314.097 113.697C314.182 114.594 314.374 115.191 314.673 115.49C315.014 115.789 315.676 115.96 316.658 116.002C317.896 116.045 319.326 116.088 320.949 116.131C322.614 116.131 324.3 116.131 326.008 116.131C327.758 116.131 329.466 116.131 331.131 116.131C332.796 116.088 334.248 116.045 335.486 116.002C336.468 115.96 337.108 115.789 337.407 115.49C337.748 115.191 337.962 114.594 338.047 113.697C338.09 112.886 338.111 112.246 338.111 111.776C338.154 111.264 338.154 110.602 338.111 109.791C338.069 109.321 337.962 109.001 337.791 108.83C337.663 108.659 337.321 108.553 336.766 108.51C335.656 108.425 334.119 108.382 332.156 108.382C330.234 108.339 328.207 108.318 326.072 108.318C323.98 108.318 321.952 108.339 319.988 108.382C318.024 108.425 316.487 108.467 315.377 108.51C314.822 108.553 314.459 108.659 314.289 108.83C314.161 109.001 314.075 109.321 314.033 109.791Z" fill="#FEEEEA"/>
<path d="M61 105C61 91.7452 71.7452 81 85 81H132C136.418 81 140 84.5817 140 89V128C140 132.418 136.418 136 132 136H69C64.5817 136 61 132.418 61 128V105Z" fill="#242945"/>
<circle cx="18" cy="188" r="18" fill="#F9502E"/>
</svg>
