<svg width="351" height="140" viewBox="0 0 351 140" fill="none" xmlns="http://www.w3.org/2000/svg">
<circle cx="207.839" cy="124.72" r="14.88" fill="#FD947F"/>
<path d="M80.6406 120.4H216.481C216.481 124.641 213.042 128.08 208.801 128.08H88.3206C84.0791 128.08 80.6406 124.641 80.6406 120.4Z" fill="#FD947F"/>
<path d="M24.4805 49.8398C24.4805 41.3567 31.3574 34.4797 39.8405 34.4797H72.0005V120.4H39.8405C31.3574 120.4 24.4805 113.523 24.4805 105.04V49.8398Z" fill="#FEEEEA"/>
<path d="M8.64062 75.7599C8.64062 67.2768 15.5175 60.3999 24.0006 60.3999H48.4806V112.72C48.4806 116.961 45.0422 120.4 40.8006 120.4H24.0006C15.5175 120.4 8.64062 113.523 8.64062 105.04V75.7599Z" fill="#FEEEEA"/>
<path d="M72 9.99966C72 4.69772 76.2981 0.399658 81.6 0.399658H223.68C228.982 0.399658 233.28 4.69773 233.28 9.99966V112.72C233.28 116.961 229.842 120.4 225.6 120.4H72V9.99966Z" fill="#FED8D0"/>
<circle cx="43.2003" cy="124.72" r="14.88" fill="#FD947F"/>
<path d="M112.312 68.9988C113.886 68.9988 115.162 70.2622 115.162 71.8201C115.162 73.3782 113.886 74.6414 112.312 74.6414C110.739 74.6413 109.463 73.3782 109.463 71.8201C109.463 70.2622 110.739 68.9989 112.312 68.9988ZM124.345 68.9988C125.918 68.9989 127.194 70.2622 127.194 71.8201C127.194 73.3782 125.918 74.6413 124.345 74.6414C122.771 74.6414 121.495 73.3782 121.495 71.8201C121.495 70.2622 122.771 68.9988 124.345 68.9988ZM117.361 46.4373C117.726 46.4348 118.086 46.5215 118.409 46.6902C118.732 46.8591 119.007 47.1051 119.211 47.4051C119.415 47.7051 119.54 48.0503 119.576 48.41C119.612 48.7697 119.557 49.1329 119.417 49.4666C119.277 49.8003 119.055 50.0949 118.771 50.3231C119.614 51.1409 120.126 52.2358 120.209 53.4012C120.991 54.1555 121.569 55.0934 121.887 56.1277C123.558 56.3472 127.586 57.4201 127.586 62.7303C127.586 62.9595 127.678 63.1795 127.842 63.3416C128.006 63.5038 128.228 63.5955 128.46 63.5955C128.692 63.5955 128.914 63.5039 129.078 63.3416C129.242 63.1795 129.334 62.9595 129.334 62.7303C129.334 55.3826 122.995 54.473 121.494 54.3602V54.0594C121.494 53.0335 121.906 52.0495 122.639 51.324C123.371 50.5986 124.365 50.1913 125.401 50.1912C127.216 50.1912 128.957 50.9028 130.242 52.1707C131.528 53.4386 132.253 55.1595 132.26 56.9559V61.3445C132.26 63.0345 131.585 64.6562 130.382 65.8553C129.179 67.0544 127.546 67.7332 125.839 67.7449H118.373V67.6893C118.269 67.7093 118.162 67.7197 118.056 67.7205H116.156C115.737 67.7205 115.334 67.5553 115.037 67.2615C114.74 66.9676 114.573 66.5688 114.573 66.1531C114.573 65.7374 114.74 65.3387 115.037 65.0447C115.334 64.7509 115.736 64.5858 116.156 64.5858H118.056C118.162 64.5865 118.269 64.5969 118.373 64.617V61.7957C118.371 61.5385 118.267 61.292 118.083 61.1102C117.899 60.9285 117.65 60.8257 117.391 60.824H109.855C109.596 60.8257 109.347 60.9283 109.163 61.1102C108.979 61.292 108.876 61.5385 108.874 61.7957V63.0496C109.071 63.1955 109.23 63.3848 109.34 63.6024C109.45 63.82 109.508 64.0602 109.508 64.3035V66.1844C109.508 66.6 109.341 66.9989 109.044 67.2928C108.747 67.5867 108.344 67.7518 107.924 67.7518C107.504 67.7517 107.101 67.5866 106.805 67.2928C106.508 66.9989 106.341 66.6 106.341 66.1844V64.3035C106.341 63.9105 106.492 63.5322 106.762 63.244C107.032 62.9557 107.402 62.7788 107.798 62.7488C106.979 62.1821 106.306 61.4324 105.833 60.5613C105.36 59.6903 105.1 58.7217 105.074 57.7332C105.084 56.9224 105.258 56.1215 105.584 55.3777C105.91 54.6339 106.383 53.9622 106.975 53.4012C107.058 52.2357 107.569 51.1409 108.412 50.3231C108.129 50.0949 107.907 49.8003 107.767 49.4666C107.626 49.1329 107.572 48.7697 107.607 48.41C107.643 48.0504 107.768 47.705 107.972 47.4051C108.175 47.105 108.452 46.8591 108.774 46.6902C109.097 46.5215 109.457 46.4347 109.822 46.4373C110.187 46.4399 110.547 46.5324 110.867 46.7059C111.187 46.8793 111.459 47.1287 111.658 47.4315C111.857 47.7344 111.978 48.0819 112.009 48.4422C113.053 48.2283 114.131 48.2283 115.175 48.4422C115.205 48.0819 115.326 47.7344 115.525 47.4315C115.725 47.1287 115.996 46.8793 116.316 46.7059C116.637 46.5324 116.996 46.4399 117.361 46.4373ZM111.084 55.8338C110.748 55.8338 110.426 55.9659 110.188 56.201C109.951 56.4361 109.817 56.7552 109.817 57.0877C109.817 57.4202 109.951 57.7393 110.188 57.9744C110.426 58.2095 110.748 58.3416 111.084 58.3416H112.274C112.556 58.3417 112.83 58.2483 113.053 58.077C113.275 57.9055 113.434 57.665 113.503 57.3943C113.55 57.2095 113.554 57.0165 113.515 56.8299C113.475 56.6432 113.393 56.4677 113.274 56.3172C113.156 56.1667 113.004 56.0445 112.831 55.9607C112.658 55.877 112.467 55.8337 112.274 55.8338H111.084ZM110.476 52.9158C110.31 52.8836 110.139 52.9003 109.983 52.9647C109.828 53.029 109.696 53.1382 109.604 53.2772C109.511 53.4162 109.462 53.5793 109.463 53.7459C109.465 53.9665 109.554 54.1778 109.712 54.3338C109.869 54.4896 110.083 54.5783 110.306 54.5799C110.474 54.581 110.639 54.532 110.779 54.4402C110.92 54.3484 111.03 54.2178 111.095 54.0643C111.16 53.9105 111.177 53.7405 111.145 53.577C111.112 53.4135 111.03 53.2631 110.911 53.1453C110.792 53.0277 110.641 52.948 110.476 52.9158ZM113.517 52.9158C113.351 52.948 113.199 53.0275 113.08 53.1453C112.961 53.2631 112.88 53.4135 112.848 53.577C112.815 53.7405 112.832 53.9105 112.897 54.0643C112.962 54.2179 113.073 54.3485 113.213 54.4402C113.353 54.532 113.518 54.5811 113.687 54.5799C113.909 54.5783 114.123 54.4897 114.28 54.3338C114.438 54.1778 114.528 53.9665 114.529 53.7459C114.531 53.5794 114.481 53.4162 114.389 53.2772C114.296 53.138 114.163 53.029 114.008 52.9647C113.853 52.9004 113.682 52.8837 113.517 52.9158Z" fill="#F9502E"/>
<path d="M173.726 60.9079C173.132 60.8874 172.64 60.826 172.251 60.7235C171.882 60.6005 171.585 60.4366 171.359 60.2317C171.134 60.0063 170.97 59.7296 170.868 59.4017C170.786 59.0534 170.734 58.6435 170.714 58.1722C170.714 57.9878 170.704 57.6906 170.683 57.2808C170.683 56.8504 170.683 56.3791 170.683 55.8668C170.683 55.334 170.673 54.7807 170.652 54.2069C170.652 53.6331 170.652 53.0798 170.652 52.547C170.652 52.0142 170.652 51.5429 170.652 51.133C170.652 50.7232 170.652 50.4158 170.652 50.2109C170.652 49.4526 170.857 48.8891 171.267 48.5202C171.697 48.1309 172.22 47.9362 172.835 47.9362C173.491 47.9362 174.023 48.1309 174.433 48.5202C174.864 48.8891 175.079 49.4629 175.079 50.2416V51.4404C175.468 51.4404 175.929 51.4404 176.462 51.4404C176.995 51.4404 177.538 51.4404 178.091 51.4404C178.644 51.4404 179.187 51.4404 179.72 51.4404C180.253 51.4404 180.714 51.4404 181.104 51.4404V50.0572C181.104 49.3399 181.319 48.8071 181.749 48.4588C182.179 48.1104 182.712 47.9362 183.347 47.9362C183.962 47.9362 184.485 48.1001 184.915 48.428C185.345 48.7559 185.561 49.258 185.561 49.9342C185.561 50.2006 185.561 50.7232 185.561 51.5019C185.581 52.2601 185.591 53.0798 185.591 53.961C185.591 54.8422 185.591 55.6824 185.591 56.4816C185.591 57.2603 185.581 57.8033 185.561 58.1107C185.54 58.582 185.479 58.9919 185.376 59.3403C185.274 59.6681 185.1 59.9448 184.854 60.1702C184.608 60.3751 184.27 60.5391 183.839 60.662C183.409 60.785 182.845 60.8567 182.149 60.8772C181.616 60.9182 180.991 60.9489 180.274 60.9694C179.577 60.9694 178.849 60.9797 178.091 61.0002C177.353 61.0002 176.605 61.0002 175.847 61.0002C175.089 60.9797 174.382 60.9489 173.726 60.9079ZM175.079 56.666C175.099 56.9939 175.161 57.1885 175.263 57.25C175.366 57.3115 175.591 57.3525 175.939 57.373C176.595 57.3935 177.292 57.4037 178.03 57.4037C178.767 57.4037 179.433 57.3832 180.028 57.3422C180.253 57.3217 180.438 57.3115 180.581 57.3115C180.724 57.291 180.837 57.2705 180.919 57.25C181.001 57.209 181.052 57.1476 181.073 57.0656C181.114 56.9631 181.134 56.8299 181.134 56.666V54.7909C180.745 54.7909 180.284 54.7909 179.751 54.7909C179.218 54.7704 178.665 54.7602 178.091 54.7602C177.538 54.7602 176.995 54.7704 176.462 54.7909C175.929 54.7909 175.468 54.7909 175.079 54.7909V56.666ZM178.983 67.7012C178.983 66.779 179.146 65.9491 179.474 65.2114C179.823 64.4736 180.294 63.8486 180.888 63.3363C181.503 62.824 182.241 62.4346 183.102 62.1682C183.962 61.9018 184.915 61.7686 185.96 61.7686C186.923 61.7686 187.805 61.9018 188.604 62.1682C189.423 62.4346 190.12 62.824 190.694 63.3363C191.288 63.8486 191.749 64.4736 192.077 65.2114C192.405 65.9286 192.569 66.7585 192.569 67.7012C192.569 68.5414 192.415 69.3201 192.108 70.0373C191.821 70.7546 191.391 71.3796 190.817 71.9124C190.243 72.4452 189.546 72.8653 188.727 73.1727C187.928 73.4801 187.005 73.6338 185.96 73.6338C184.915 73.6338 183.962 73.4801 183.102 73.1727C182.261 72.8653 181.534 72.4452 180.919 71.9124C180.304 71.3796 179.823 70.7546 179.474 70.0373C179.146 69.3201 178.983 68.5414 178.983 67.7012ZM183.532 67.6397C183.532 68.234 183.747 68.7258 184.177 69.1152C184.608 69.484 185.171 69.6685 185.868 69.6685C186.585 69.6685 187.159 69.484 187.589 69.1152C188.04 68.7258 188.266 68.234 188.266 67.6397C188.266 66.984 188.05 66.4819 187.62 66.1335C187.19 65.7647 186.606 65.5802 185.868 65.5802C185.171 65.5802 184.608 65.7544 184.177 66.1028C183.747 66.4307 183.532 66.943 183.532 67.6397ZM189.833 49.7805C189.792 48.9198 189.956 48.2743 190.325 47.844C190.714 47.3931 191.288 47.1677 192.046 47.1677C192.743 47.1677 193.307 47.3829 193.737 47.8132C194.188 48.2231 194.434 48.9198 194.475 49.9035C194.516 50.9486 194.536 51.881 194.536 52.7007C194.557 53.4999 194.567 54.2581 194.567 54.9754C194.567 55.6721 194.557 56.3381 194.536 56.9734C194.536 57.6086 194.526 58.2644 194.506 58.9407C194.465 59.9243 194.249 60.703 193.86 61.2768C193.471 61.8506 192.887 62.1375 192.108 62.1375C191.329 62.1375 190.755 61.9121 190.387 61.4612C190.038 60.9899 189.895 60.2317 189.956 59.1866C189.977 58.6538 189.987 58.0082 189.987 57.25C190.007 56.4918 190.007 55.6926 189.987 54.8524C189.987 53.9917 189.967 53.1208 189.926 52.2396C189.905 51.3584 189.874 50.5387 189.833 49.7805Z" fill="#FEEEEA"/>
<path d="M156.545 73.4493C155.95 73.4493 155.387 73.2443 154.854 72.8345C154.342 72.4246 154.065 71.8201 154.024 71.0209C154.024 70.775 154.014 70.4779 153.993 70.1295C153.993 69.7811 153.983 69.402 153.963 68.9921C153.963 68.5823 153.963 68.152 153.963 67.7011C153.963 67.2503 153.963 66.7995 153.963 66.3486C152.467 66.3281 151.012 66.2974 149.598 66.2564C148.204 66.2154 146.944 66.1437 145.817 66.0412C144.874 65.9593 144.218 65.7338 143.85 65.365C143.481 64.9756 143.317 64.4838 143.358 63.8895C143.399 63.2952 143.593 62.8137 143.942 62.4448C144.311 62.0554 144.987 61.8813 145.971 61.9222C147.63 61.9837 149.352 62.035 151.135 62.0759C152.938 62.0964 154.731 62.1067 156.514 62.1067C158.317 62.1067 160.1 62.0964 161.862 62.0759C163.625 62.035 165.305 61.9735 166.904 61.8915C167.949 61.8505 168.676 62.0452 169.086 62.4755C169.516 62.8854 169.732 63.4079 169.732 64.0432C169.732 64.6375 169.568 65.0986 169.24 65.4265C168.932 65.7338 168.389 65.9285 167.611 66.0105C166.709 66.113 165.51 66.1949 164.014 66.2564C162.539 66.2974 160.92 66.3281 159.157 66.3486C159.137 67.0044 159.116 67.6806 159.096 68.3774C159.096 69.0536 159.096 69.6684 159.096 70.2217C159.096 70.775 159.014 71.2463 158.85 71.6357C158.707 72.0455 158.512 72.3837 158.266 72.6501C158.041 72.9165 157.774 73.1111 157.467 73.2341C157.159 73.3775 156.852 73.4493 156.545 73.4493ZM146.093 55.8975C146.093 55.1187 146.093 54.4732 146.093 53.9609C146.093 53.4486 146.093 53.008 146.093 52.6391C146.114 52.2498 146.124 51.9014 146.124 51.594C146.145 51.2866 146.175 50.9383 146.216 50.5489C146.278 49.8727 146.493 49.3706 146.862 49.0427C147.231 48.6943 147.835 48.5099 148.676 48.4894C149.967 48.4689 151.288 48.4484 152.641 48.4279C154.014 48.4075 155.377 48.3972 156.729 48.3972C158.082 48.3767 159.403 48.3767 160.694 48.3972C161.985 48.3972 163.205 48.4279 164.352 48.4894C165.192 48.5304 165.797 48.7148 166.166 49.0427C166.535 49.3706 166.75 49.8727 166.811 50.5489C166.832 50.9383 166.852 51.2866 166.873 51.594C166.893 51.9014 166.904 52.2498 166.904 52.6391C166.924 53.008 166.934 53.4486 166.934 53.9609C166.934 54.4732 166.934 55.1187 166.934 55.8975C166.934 56.6352 166.883 57.2602 166.781 57.7725C166.699 58.2643 166.514 58.6742 166.227 59.0021C165.94 59.3095 165.531 59.5451 164.998 59.7091C164.465 59.873 163.748 59.9857 162.846 60.0472C162.067 60.0882 161.155 60.1189 160.11 60.1394C159.065 60.1599 157.969 60.1701 156.821 60.1701C155.674 60.1701 154.516 60.1599 153.348 60.1394C152.2 60.1189 151.145 60.0984 150.182 60.0779C149.28 60.0574 148.563 59.9652 148.03 59.8013C147.497 59.6373 147.087 59.3914 146.8 59.0635C146.514 58.7152 146.319 58.2848 146.216 57.7725C146.134 57.2602 146.093 56.6352 146.093 55.8975ZM150.735 53.1002C150.715 53.4896 150.704 53.8072 150.704 54.0531C150.725 54.2785 150.745 54.5859 150.766 54.9753C150.807 55.4056 150.899 55.6925 151.042 55.836C151.206 55.9794 151.524 56.0614 151.995 56.0819C152.59 56.1024 153.276 56.1229 154.055 56.1434C154.854 56.1434 155.663 56.1434 156.483 56.1434C157.323 56.1434 158.143 56.1434 158.942 56.1434C159.741 56.1229 160.438 56.1024 161.032 56.0819C161.504 56.0614 161.811 55.9794 161.955 55.836C162.119 55.6925 162.221 55.4056 162.262 54.9753C162.283 54.5859 162.293 54.2785 162.293 54.0531C162.313 53.8072 162.313 53.4896 162.293 53.1002C162.272 52.8748 162.221 52.7211 162.139 52.6391C162.078 52.5572 161.914 52.5059 161.647 52.4855C161.114 52.4445 160.377 52.424 159.434 52.424C158.512 52.4035 157.539 52.3932 156.514 52.3932C155.51 52.3932 154.536 52.4035 153.594 52.424C152.651 52.4445 151.913 52.465 151.381 52.4855C151.114 52.5059 150.94 52.5572 150.858 52.6391C150.796 52.7211 150.755 52.8748 150.735 53.1002Z" fill="#FEEEEA"/>
<path d="M29.2793 50.7998C29.2793 44.4375 34.437 39.2798 40.7993 39.2798H63.3593C65.4801 39.2798 67.1993 40.999 67.1993 43.1198V61.8398C67.1993 63.9606 65.4801 65.6798 63.3593 65.6798H33.1193C30.9985 65.6798 29.2793 63.9606 29.2793 61.8398V50.7998Z" fill="#FED8D0"/>
<circle cx="8.64" cy="90.64" r="8.64" fill="#FED8D0"/>
<rect x="248" y="31" width="80" height="4" rx="2" fill="#D9D9D9"/>
<rect x="248" y="49" width="100" height="4" rx="2" fill="#D9D9D9"/>
<rect x="248" y="67" width="60" height="4" rx="2" fill="#D9D9D9"/>
</svg>
