<svg width="148" height="135" viewBox="0 0 148 135" fill="none" xmlns="http://www.w3.org/2000/svg">
<g filter="url(#filter0_dd_1_12156)">
<rect x="20" y="12" width="100" height="102.913" rx="19.4175" fill="white"/>
<rect x="21.0293" y="13.0293" width="97.9414" height="100.854" rx="18.3882" stroke="#E6E6E6" stroke-width="2.05856"/>
<path d="M56.3838 81.5846C59.7561 81.5846 62.4902 84.2917 62.4902 87.6305C62.4902 90.9692 59.7561 93.6754 56.3838 93.6754C53.0117 93.6752 50.2784 90.9691 50.2783 87.6305C50.2783 84.2919 53.0117 81.5849 56.3838 81.5846ZM82.165 81.5846C85.5374 81.5846 88.2715 84.2917 88.2715 87.6305C88.2714 90.9692 85.5373 93.6754 82.165 93.6754C78.793 93.6752 76.0596 90.9691 76.0596 87.6305C76.0596 84.2919 78.7929 81.5849 82.165 81.5846ZM67.2021 33.2369C67.9846 33.2313 68.7564 33.4181 69.4482 33.7799C70.14 34.1417 70.7306 34.6673 71.167 35.3102C71.6034 35.9532 71.8723 36.6936 71.9492 37.4645C72.0261 38.2353 71.9092 39.0131 71.6084 39.7282C71.3075 40.4433 70.8326 41.0742 70.2256 41.5631C72.0312 43.3156 73.127 45.6617 73.3057 48.1588C74.9827 49.7754 76.2196 51.7857 76.9014 54.0026C80.4837 54.4728 89.1132 56.7705 89.1133 68.149C89.1133 68.6407 89.3109 69.1129 89.6621 69.4606C90.0132 69.808 90.4899 70.0035 90.9863 70.0035C91.4828 70.0035 91.9595 69.8082 92.3105 69.4606C92.6617 69.1129 92.8584 68.6407 92.8584 68.149C92.8583 52.4042 79.2755 50.4563 76.0596 50.2145V49.5699C76.0596 47.3717 76.9418 45.2631 78.5117 43.7086C80.0817 42.1542 82.2114 41.281 84.4316 41.2809C88.3196 41.2809 92.0494 42.8063 94.8037 45.5231C97.558 48.2399 99.1135 51.9267 99.1279 55.776V65.1803C99.128 68.8018 97.6811 72.2767 95.1035 74.8463C92.5259 77.4159 89.026 78.8713 85.3682 78.8961H69.3701V78.776C69.1466 78.819 68.9191 78.8407 68.6914 78.8424H64.6211C63.7214 78.8424 62.8588 78.4888 62.2227 77.859C61.5865 77.2292 61.2285 76.3748 61.2285 75.484C61.2286 74.5934 61.5865 73.7388 62.2227 73.109C62.8588 72.4794 63.7216 72.1256 64.6211 72.1256H68.6914C68.9191 72.1273 69.1466 72.15 69.3701 72.193V66.1471C69.3665 65.5961 69.1436 65.069 68.75 64.6793C68.3563 64.2896 67.8233 64.0686 67.2666 64.0651H51.1201C50.5634 64.0686 50.0304 64.2896 49.6367 64.6793C49.2432 65.069 49.0203 65.5961 49.0166 66.1471V68.8346C49.4378 69.1474 49.7801 69.5529 50.0156 70.0192C50.2511 70.4855 50.373 70.9998 50.373 71.5211V75.5514C50.373 76.4421 50.0161 77.2965 49.3799 77.9264C48.7438 78.5562 47.881 78.9097 46.9814 78.9098C46.0818 78.9098 45.2182 78.5562 44.582 77.9264C43.946 77.2966 43.5889 76.4421 43.5889 75.5514V71.5211C43.5898 70.6789 43.9118 69.8682 44.4902 69.2506C45.0688 68.633 45.8616 68.2534 46.71 68.1891C44.9559 66.9746 43.5134 65.3702 42.5 63.5035C41.4866 61.6369 40.9303 59.5605 40.875 57.442C40.897 55.7047 41.2679 53.9889 41.9668 52.3951C42.6657 50.8014 43.6783 49.361 44.9453 48.1588C45.124 45.6615 46.2205 43.3156 48.0264 41.5631C47.4193 41.0742 46.9435 40.4433 46.6426 39.7282C46.3418 39.0131 46.2248 38.2353 46.3018 37.4645C46.3787 36.6935 46.6476 35.9532 47.084 35.3102C47.5204 34.6673 48.1109 34.1417 48.8027 33.7799C49.4946 33.4181 50.2664 33.2313 51.0488 33.2369C51.8312 33.2426 52.5997 33.4405 53.2861 33.8121C53.9727 34.1839 54.5555 34.7186 54.9824 35.3678C55.4093 36.017 55.6678 36.7609 55.7334 37.5328C57.9712 37.0745 60.2798 37.0745 62.5176 37.5328C62.5832 36.7609 62.8417 36.017 63.2686 35.3678C63.6955 34.7186 64.2783 34.1839 64.9648 33.8121C65.6513 33.4405 66.4198 33.2426 67.2021 33.2369ZM53.752 53.3717C53.0323 53.3718 52.3419 53.655 51.833 54.1588C51.3243 54.6626 51.0381 55.3458 51.0381 56.0582C51.0381 56.7708 51.3241 57.4547 51.833 57.9586C52.3419 58.4624 53.0323 58.7447 53.752 58.7448H56.3027C56.907 58.745 57.4948 58.5458 57.9717 58.1783C58.4483 57.8109 58.7875 57.2963 58.9355 56.7164C59.0367 56.3199 59.0449 55.9057 58.96 55.5055C58.875 55.1053 58.6992 54.7294 58.4453 54.4069C58.1914 54.0843 57.8663 53.8236 57.4951 53.6442C57.1239 53.4647 56.7158 53.3715 56.3027 53.3717H53.752ZM52.4482 47.1178C52.0943 47.0488 51.7273 47.0863 51.3945 47.2242C51.0619 47.3621 50.7778 47.5943 50.5791 47.8922C50.3803 48.1903 50.2756 48.5409 50.2783 48.8981C50.2819 49.3708 50.4729 49.8236 50.8105 50.1578C51.1482 50.4921 51.6055 50.6807 52.083 50.6842C52.4438 50.6869 52.7975 50.5831 53.0986 50.3864C53.3994 50.1896 53.6342 49.9089 53.7734 49.5797C53.9127 49.2503 53.9505 48.8871 53.8809 48.5367C53.8112 48.1865 53.6377 47.8644 53.3828 47.6119C53.1277 47.3594 52.8022 47.1868 52.4482 47.1178ZM60.0176 47.2242C59.6848 47.0863 59.3178 47.0488 58.9639 47.1178C58.61 47.1869 58.2853 47.3594 58.0303 47.6119C57.7752 47.8645 57.601 48.1863 57.5312 48.5367C57.4616 48.8871 57.4994 49.2503 57.6387 49.5797C57.7779 49.9089 58.0127 50.1896 58.3135 50.3864C58.6146 50.5831 58.9683 50.6869 59.3291 50.6842C59.8066 50.6807 60.2639 50.4921 60.6016 50.1578C60.9392 49.8236 61.1302 49.3708 61.1338 48.8981C61.1365 48.5409 61.0318 48.1903 60.833 47.8922C60.6343 47.5943 60.3502 47.3621 60.0176 47.2242Z" fill="#F9502E"/>
</g>
<defs>
<filter id="filter0_dd_1_12156" x="-8" y="0" width="156" height="158.913" filterUnits="userSpaceOnUse" color-interpolation-filters="sRGB">
<feFlood flood-opacity="0" result="BackgroundImageFix"/>
<feColorMatrix in="SourceAlpha" type="matrix" values="0 0 0 0 0 0 0 0 0 0 0 0 0 0 0 0 0 0 127 0" result="hardAlpha"/>
<feMorphology radius="4" operator="erode" in="SourceAlpha" result="effect1_dropShadow_1_12156"/>
<feOffset dy="4"/>
<feGaussianBlur stdDeviation="2"/>
<feComposite in2="hardAlpha" operator="out"/>
<feColorMatrix type="matrix" values="0 0 0 0 0.0470588 0 0 0 0 0.0470588 0 0 0 0 0.0509804 0 0 0 0.05 0"/>
<feBlend mode="normal" in2="BackgroundImageFix" result="effect1_dropShadow_1_12156"/>
<feColorMatrix in="SourceAlpha" type="matrix" values="0 0 0 0 0 0 0 0 0 0 0 0 0 0 0 0 0 0 127 0" result="hardAlpha"/>
<feMorphology radius="4" operator="erode" in="SourceAlpha" result="effect2_dropShadow_1_12156"/>
<feOffset dy="16"/>
<feGaussianBlur stdDeviation="16"/>
<feComposite in2="hardAlpha" operator="out"/>
<feColorMatrix type="matrix" values="0 0 0 0 0.0470588 0 0 0 0 0.0470588 0 0 0 0 0.0509804 0 0 0 0.1 0"/>
<feBlend mode="normal" in2="effect1_dropShadow_1_12156" result="effect2_dropShadow_1_12156"/>
<feBlend mode="normal" in="SourceGraphic" in2="effect2_dropShadow_1_12156" result="shape"/>
</filter>
</defs>
</svg>
