<svg width="36" height="36" viewBox="0 0 36 36" fill="none" xmlns="http://www.w3.org/2000/svg">
<path d="M29.25 4.5H25.875V3.375C25.875 3.07663 25.7565 2.79048 25.5455 2.5795C25.3345 2.36853 25.0484 2.25 24.75 2.25C24.4516 2.25 24.1655 2.36853 23.9545 2.5795C23.7435 2.79048 23.625 3.07663 23.625 3.375V4.5H12.375V3.375C12.375 3.07663 12.2565 2.79048 12.0455 2.5795C11.8345 2.36853 11.5484 2.25 11.25 2.25C10.9516 2.25 10.6655 2.36853 10.4545 2.5795C10.2435 2.79048 10.125 3.07663 10.125 3.375V4.5H6.75C6.15326 4.5 5.58097 4.73705 5.15901 5.15901C4.73705 5.58097 4.5 6.15326 4.5 6.75V29.25C4.5 29.8467 4.73705 30.419 5.15901 30.841C5.58097 31.2629 6.15326 31.5 6.75 31.5H29.25C29.8467 31.5 30.419 31.2629 30.841 30.841C31.2629 30.419 31.5 29.8467 31.5 29.25V6.75C31.5 6.15326 31.2629 5.58097 30.841 5.15901C30.419 4.73705 29.8467 4.5 29.25 4.5ZM29.25 11.25H6.75V6.75H10.125V7.875C10.125 8.17337 10.2435 8.45952 10.4545 8.6705C10.6655 8.88147 10.9516 9 11.25 9C11.5484 9 11.8345 8.88147 12.0455 8.6705C12.2565 8.45952 12.375 8.17337 12.375 7.875V6.75H23.625V7.875C23.625 8.17337 23.7435 8.45952 23.9545 8.6705C24.1655 8.88147 24.4516 9 24.75 9C25.0484 9 25.3345 8.88147 25.5455 8.6705C25.7565 8.45952 25.875 8.17337 25.875 7.875V6.75H29.25V11.25Z" fill="#F9502E"/>
</svg>
