<svg width="20" height="24" viewBox="0 0 20 24" fill="none" xmlns="http://www.w3.org/2000/svg">
<circle cx="10" cy="10.8984" r="8" fill="#F9502E"/>
<mask id="mask0_1_5277" style="mask-type:alpha" maskUnits="userSpaceOnUse" x="10" y="2" width="9" height="20">
<rect width="8" height="18.2" transform="matrix(1 0 0 -1 10.0001 21.0977)" fill="#D9D9D9"/>
</mask>
<g mask="url(#mask0_1_5277)">
<path d="M2.00006 10.8984C2.00006 17.4984 10.0001 21.0984 10.0001 21.0984C10.0001 21.0984 18.0001 17.4984 18.0001 10.8984C18.0001 6.48016 14.4183 2.89844 10.0001 2.89844C5.58178 2.89844 2.00006 6.48016 2.00006 10.8984Z" fill="#F9502E"/>
</g>
<path d="M13.1325 8.45312C13.6417 8.45312 14.0706 8.7936 14.2067 9.25879C14.2133 9.28078 14.219 9.30292 14.2243 9.3252C14.2265 9.33496 14.2292 9.34463 14.2311 9.35449C14.252 9.45457 14.259 9.55659 14.2526 9.6582V10.9004C14.6567 10.7318 15.1397 10.8143 15.4655 11.1455C15.8932 11.5804 15.8876 12.2793 15.4528 12.707L13.9254 14.21C13.8499 14.2842 13.7651 14.3435 13.6764 14.3916C13.6718 14.3942 13.6674 14.3969 13.6627 14.3994C13.6508 14.4057 13.6387 14.4112 13.6266 14.417C13.4775 14.4905 13.31 14.5332 13.1325 14.5332C12.5141 14.533 12.0133 14.0315 12.0133 13.4131V12.2666L10.0641 14.1836C9.85953 14.405 9.56802 14.5449 9.24283 14.5449C8.62427 14.5449 8.12271 14.0434 8.12271 13.4248V12.2422L6.12173 14.2109C5.68069 14.6445 4.97142 14.6383 4.53775 14.1973C4.10412 13.7562 4.11041 13.047 4.55142 12.6133L8.44791 8.78125C8.78233 8.45243 9.27069 8.37704 9.67642 8.55176C10.0796 8.72124 10.3629 9.12017 10.3629 9.58496V10.7119L12.3288 8.7793C12.5352 8.57628 12.7999 8.46905 13.068 8.45605C13.0894 8.45484 13.1108 8.45313 13.1325 8.45312Z" fill="white"/>
</svg>
