<svg width="20" height="20" viewBox="0 0 20 20" fill="none" xmlns="http://www.w3.org/2000/svg">
<g clip-path="url(#clip0_522_40618)">
<path d="M10.008 1.67578C10.6562 1.67582 11.2821 1.91192 11.7689 2.33995L11.8972 2.46078L12.4789 3.04245C12.6385 3.20104 12.8469 3.30116 13.0705 3.32661L13.183 3.33328H14.0164C14.6974 3.33324 15.3526 3.59376 15.8477 4.0614C16.3427 4.52904 16.6401 5.16837 16.6789 5.84828L16.683 5.99995V6.83328C16.683 7.05828 16.7597 7.27745 16.898 7.45245L16.973 7.53578L17.5539 8.11745C18.0353 8.59616 18.316 9.24046 18.3388 9.91901C18.3615 10.5975 18.1246 11.2592 17.6764 11.7691L17.5555 11.8974L16.9739 12.4791C16.8153 12.6387 16.7151 12.8472 16.6897 13.0708L16.683 13.1833V14.0166C16.6831 14.6976 16.4226 15.3529 15.9549 15.8479C15.4873 16.343 14.8479 16.6404 14.168 16.6791L14.0164 16.6833H13.183C12.9583 16.6834 12.7402 16.7591 12.5639 16.8983L12.4805 16.9733L11.8989 17.5541C11.4202 18.0355 10.7758 18.3163 10.0973 18.339C9.41876 18.3618 8.75709 18.1249 8.24719 17.6766L8.11886 17.5558L7.53719 16.9741C7.37756 16.8155 7.1691 16.7154 6.94553 16.6899L6.83303 16.6833H5.99969C5.31868 16.6833 4.66345 16.4228 4.16839 15.9552C3.67332 15.4875 3.37592 14.8482 3.33719 14.1683L3.33303 14.0166V13.1833C3.33295 12.9586 3.25721 12.7405 3.11803 12.5641L3.04303 12.4808L2.46219 11.8991C1.98076 11.4204 1.70004 10.7761 1.67728 10.0976C1.65452 9.41902 1.89142 8.75734 2.33969 8.24745L2.46053 8.11912L3.04219 7.53745C3.20079 7.37782 3.3009 7.16936 3.32636 6.94578L3.33303 6.83328V5.99995L3.33719 5.84828C3.3744 5.19449 3.65088 4.57724 4.11393 4.11419C4.57698 3.65114 5.19423 3.37466 5.84803 3.33745L5.99969 3.33328H6.83303C7.05771 3.33321 7.27582 3.25747 7.45219 3.11828L7.53553 3.04328L8.11719 2.46245C8.36497 2.21319 8.65958 2.01537 8.98408 1.88036C9.30858 1.74536 9.65656 1.67583 10.008 1.67578ZM13.0889 7.74412C12.9326 7.58789 12.7207 7.50013 12.4997 7.50013C12.2787 7.50013 12.0668 7.58789 11.9105 7.74412L9.16636 10.4874L8.08886 9.41078L8.01053 9.34162C7.84303 9.21211 7.63252 9.1512 7.42175 9.17128C7.21098 9.19136 7.01576 9.29091 6.87573 9.44972C6.7357 9.60852 6.66137 9.81467 6.66784 10.0263C6.6743 10.2379 6.76107 10.4391 6.91053 10.5891L8.57719 12.2558L8.65553 12.3249C8.81586 12.4493 9.01607 12.5109 9.21859 12.4982C9.42112 12.4855 9.61203 12.3993 9.75553 12.2558L13.0889 8.92245L13.158 8.84412C13.2824 8.68378 13.344 8.48357 13.3313 8.28105C13.3185 8.07853 13.2323 7.88761 13.0889 7.74412Z" fill="#F9502E"/>
</g>
<defs>
<clipPath id="clip0_522_40618">
<rect width="20" height="20" fill="white"/>
</clipPath>
</defs>
</svg>
