<svg width="24" height="24" viewBox="0 0 24 24" fill="none" xmlns="http://www.w3.org/2000/svg">
<mask id="path-1-inside-1_1_1835" fill="white">
<path d="M7 7C7.8392 7 8.55673 7.51725 8.85352 8.25H18C18.4142 8.25 18.75 8.58579 18.75 9C18.75 9.41421 18.4142 9.75 18 9.75H8.85352C8.55673 10.4828 7.8392 11 7 11C5.89543 11 5 10.1046 5 9C5 7.89543 5.89543 7 7 7Z"/>
</mask>
<path d="M7 7C7.8392 7 8.55673 7.51725 8.85352 8.25H18C18.4142 8.25 18.75 8.58579 18.75 9C18.75 9.41421 18.4142 9.75 18 9.75H8.85352C8.55673 10.4828 7.8392 11 7 11C5.89543 11 5 10.1046 5 9C5 7.89543 5.89543 7 7 7Z" fill="#F9502E"/>
<path d="M8.85352 8.25L7.92666 8.62541L8.17964 9.25H8.85352V8.25ZM18 8.25V7.25V8.25ZM18.75 9H19.75V9L18.75 9ZM18 9.75V8.75V9.75ZM8.85352 9.75V8.75H8.17964L7.92666 9.37459L8.85352 9.75ZM7 7V8C7.41716 8 7.77718 8.25636 7.92666 8.62541L8.85352 8.25L9.78038 7.87459C9.33627 6.77813 8.26124 6 7 6V7ZM8.85352 8.25V9.25H18V8.25V7.25H8.85352V8.25ZM18 8.25V9.25C17.8619 9.25 17.75 9.13807 17.75 9L18.75 9L19.75 9C19.75 8.0335 18.9665 7.25 18 7.25V8.25ZM18.75 9L17.75 9C17.75 8.86193 17.8619 8.75 18 8.75V9.75V10.75C18.9665 10.75 19.75 9.9665 19.75 9H18.75ZM18 9.75V8.75H8.85352V9.75V10.75H18V9.75ZM8.85352 9.75L7.92666 9.37459C7.77718 9.74364 7.41716 10 7 10V11V12C8.26124 12 9.33627 11.2219 9.78038 10.1254L8.85352 9.75ZM7 11V10C6.44772 10 6 9.55228 6 9H5H4C4 10.6569 5.34315 12 7 12V11ZM5 9H6C6 8.44772 6.44772 8 7 8V7V6C5.34315 6 4 7.34315 4 9H5Z" fill="#F9502E" mask="url(#path-1-inside-1_1_1835)"/>
<mask id="path-3-inside-2_1_1835" fill="white">
<path d="M17 13C18.1046 13 19 13.8954 19 15C19 16.1046 18.1046 17 17 17C16.1608 17 15.4433 16.4828 15.1465 15.75H6C5.58579 15.75 5.25 15.4142 5.25 15C5.25 14.5858 5.58579 14.25 6 14.25H15.1465C15.4433 13.5172 16.1608 13 17 13Z"/>
</mask>
<path d="M17 13C18.1046 13 19 13.8954 19 15C19 16.1046 18.1046 17 17 17C16.1608 17 15.4433 16.4828 15.1465 15.75H6C5.58579 15.75 5.25 15.4142 5.25 15C5.25 14.5858 5.58579 14.25 6 14.25H15.1465C15.4433 13.5172 16.1608 13 17 13Z" fill="#F9502E"/>
<path d="M15.1465 15.75L16.0733 15.3746L15.8204 14.75H15.1465V15.75ZM6 15.75L6 16.75H6V15.75ZM5.25 15L4.25 15V15H5.25ZM6 14.25V15.25V14.25ZM15.1465 14.25V15.25H15.8204L16.0733 14.6254L15.1465 14.25ZM17 13V14C17.5523 14 18 14.4477 18 15H19H20C20 13.3431 18.6569 12 17 12V13ZM19 15H18C18 15.5523 17.5523 16 17 16V17V18C18.6569 18 20 16.6569 20 15H19ZM17 17V16C16.5828 16 16.2228 15.7436 16.0733 15.3746L15.1465 15.75L14.2196 16.1254C14.6637 17.2219 15.7388 18 17 18V17ZM15.1465 15.75V14.75H6V15.75V16.75H15.1465V15.75ZM6 15.75L6 14.75C6.13807 14.75 6.25 14.8619 6.25 15H5.25H4.25C4.25 15.9665 5.0335 16.75 6 16.75L6 15.75ZM5.25 15H6.25C6.25 15.1381 6.13807 15.25 6 15.25V14.25V13.25C5.0335 13.25 4.25 14.0335 4.25 15L5.25 15ZM6 14.25V15.25H15.1465V14.25V13.25H6V14.25ZM15.1465 14.25L16.0733 14.6254C16.2228 14.2564 16.5828 14 17 14V13V12C15.7388 12 14.6637 12.7781 14.2196 13.8746L15.1465 14.25Z" fill="#F9502E" mask="url(#path-3-inside-2_1_1835)"/>
</svg>
