<svg width="24" height="24" viewBox="0 0 24 24" fill="none" xmlns="http://www.w3.org/2000/svg">
<path d="M3.83398 9.6432C3.83398 13.6476 9.55065 17.8187 9.55065 17.8187C9.55065 17.8187 11.184 19 12.0007 19C12.8173 19 14.4507 17.8187 14.4507 17.8187C14.4507 17.8187 20.1673 13.6476 20.1673 9.6432C20.1673 5.63881 15.6756 2.85531 12.0007 7.18682C8.32565 2.85531 3.83398 5.63881 3.83398 9.6432Z" fill="white"/>
<path d="M9.55065 17.8187L9.10858 18.4246L9.11112 18.4264L9.55065 17.8187ZM12.0007 7.18682L11.4288 7.67204C11.5713 7.84 11.7804 7.93682 12.0007 7.93682C12.2209 7.93682 12.43 7.84 12.5725 7.67204L12.0007 7.18682ZM14.4507 17.8187L14.8902 18.4264L14.8927 18.4246L14.4507 17.8187ZM9.55065 17.8187C9.99272 17.2128 9.99283 17.2129 9.99292 17.213C9.99292 17.213 9.99299 17.213 9.993 17.213C9.993 17.213 9.99293 17.213 9.99276 17.2128C9.99244 17.2126 9.99177 17.2121 9.99076 17.2114C9.98875 17.2099 9.9854 17.2074 9.98075 17.204C9.97144 17.1971 9.95694 17.1863 9.93759 17.1717C9.89889 17.1426 9.84083 17.0984 9.76617 17.0402C9.61678 16.9237 9.40136 16.7515 9.14195 16.5319C8.62204 16.0919 7.93105 15.4664 7.24261 14.723C6.55209 13.9773 5.87864 13.1284 5.38112 12.2427C4.88127 11.3528 4.58398 10.47 4.58398 9.6432H3.83398H3.08398C3.08398 10.8186 3.50129 11.9589 4.0733 12.9773C4.64766 13.9998 5.40338 14.9445 6.14203 15.7422C6.88275 16.5421 7.62093 17.2097 8.17289 17.6769C8.44942 17.9109 8.68062 18.0958 8.84386 18.2231C8.92552 18.2868 8.99027 18.3361 9.03531 18.37C9.05783 18.387 9.07543 18.4001 9.08776 18.4092C9.09392 18.4138 9.09877 18.4173 9.10225 18.4199C9.104 18.4212 9.1054 18.4222 9.10646 18.423C9.10698 18.4234 9.10743 18.4237 9.10778 18.424C9.10796 18.4241 9.10816 18.4242 9.10825 18.4243C9.10843 18.4244 9.10859 18.4246 9.55065 17.8187ZM3.83398 9.6432H4.58398C4.58398 7.91367 5.55146 6.50963 6.82605 5.98202C8.04348 5.47807 9.75356 5.69759 11.4288 7.67204L12.0007 7.18682L12.5725 6.70161C10.5727 4.34454 8.19949 3.79005 6.25234 4.59607C4.36234 5.37843 3.08398 7.36834 3.08398 9.6432H3.83398ZM9.55065 17.8187C9.11112 18.4264 9.1112 18.4265 9.11128 18.4265C9.11132 18.4265 9.11141 18.4266 9.11148 18.4267C9.11162 18.4268 9.11179 18.4269 9.11199 18.427C9.11237 18.4273 9.11286 18.4277 9.11345 18.4281C9.11462 18.4289 9.11619 18.4301 9.11815 18.4315C9.12206 18.4343 9.12751 18.4382 9.13443 18.4431C9.14827 18.4529 9.16801 18.4669 9.19303 18.4844C9.24303 18.5193 9.31437 18.5684 9.40218 18.627C9.5771 18.7438 9.82085 18.9006 10.0938 19.0585C10.3645 19.2151 10.6768 19.3804 10.9868 19.5086C11.2791 19.6293 11.6454 19.75 12.0007 19.75V19V18.25C11.9475 18.25 11.8034 18.223 11.5598 18.1223C11.3339 18.0289 11.0847 17.8989 10.845 17.7602C10.6075 17.6228 10.3919 17.4842 10.2351 17.3795C10.157 17.3274 10.0943 17.2842 10.0518 17.2545C10.0306 17.2397 10.0144 17.2283 10.004 17.2208C9.99871 17.2171 9.99489 17.2144 9.99257 17.2127C9.99141 17.2119 9.99063 17.2113 9.99022 17.211C9.99002 17.2109 9.98992 17.2108 9.98991 17.2108C9.98991 17.2108 9.98993 17.2108 9.98997 17.2108C9.99 17.2108 9.99005 17.2109 9.99006 17.2109C9.99012 17.2109 9.99018 17.211 9.55065 17.8187ZM14.4507 17.8187C14.8927 18.4246 14.8929 18.4244 14.8931 18.4243C14.8931 18.4242 14.8933 18.4241 14.8935 18.424C14.8939 18.4237 14.8943 18.4234 14.8948 18.423C14.8959 18.4222 14.8973 18.4212 14.899 18.4199C14.9025 18.4173 14.9074 18.4138 14.9135 18.4092C14.9259 18.4001 14.9435 18.387 14.966 18.37C15.011 18.3361 15.0758 18.2868 15.1574 18.2231C15.3207 18.0958 15.5519 17.9109 15.8284 17.6769C16.3804 17.2097 17.1186 16.5421 17.8593 15.7422C18.5979 14.9445 19.3536 13.9998 19.928 12.9773C20.5 11.9589 20.9173 10.8186 20.9173 9.6432H20.1673H19.4173C19.4173 10.47 19.12 11.3528 18.6202 12.2427C18.1227 13.1284 17.4492 13.9773 16.7587 14.723C16.0702 15.4664 15.3793 16.0919 14.8593 16.5319C14.5999 16.7515 14.3845 16.9237 14.2351 17.0402C14.1605 17.0984 14.1024 17.1426 14.0637 17.1717C14.0444 17.1863 14.0299 17.1971 14.0206 17.204C14.0159 17.2074 14.0125 17.2099 14.0105 17.2114C14.0095 17.2121 14.0089 17.2126 14.0085 17.2128C14.0084 17.213 14.0083 17.213 14.0083 17.213C14.0083 17.213 14.0084 17.213 14.0084 17.213C14.0085 17.2129 14.0086 17.2128 14.4507 17.8187ZM20.1673 9.6432H20.9173C20.9173 7.36834 19.639 5.37843 17.749 4.59607C15.8018 3.79005 13.4286 4.34454 11.4288 6.70161L12.0007 7.18682L12.5725 7.67204C14.2477 5.69759 15.9578 5.47807 17.1753 5.98202C18.4498 6.50963 19.4173 7.91367 19.4173 9.6432H20.1673ZM14.4507 17.8187C14.0111 17.211 14.0112 17.2109 14.0112 17.2109C14.0113 17.2109 14.0113 17.2108 14.0113 17.2108C14.0114 17.2108 14.0114 17.2108 14.0114 17.2108C14.0114 17.2108 14.0113 17.2109 14.0111 17.211C14.0107 17.2113 14.0099 17.2119 14.0087 17.2127C14.0064 17.2144 14.0026 17.2171 13.9973 17.2208C13.9869 17.2283 13.9707 17.2397 13.9495 17.2545C13.907 17.2842 13.8443 17.3274 13.7662 17.3795C13.6094 17.4842 13.3938 17.6228 13.1563 17.7602C12.9166 17.8989 12.6674 18.0289 12.4415 18.1223C12.1979 18.223 12.0538 18.25 12.0007 18.25V19V19.75C12.3559 19.75 12.7222 19.6293 13.0145 19.5086C13.3245 19.3804 13.6368 19.2151 13.9075 19.0585C14.1804 18.9006 14.4242 18.7438 14.5991 18.627C14.6869 18.5684 14.7583 18.5193 14.8083 18.4844C14.8333 18.4669 14.853 18.4529 14.8669 18.4431C14.8738 18.4382 14.8792 18.4343 14.8832 18.4315C14.8851 18.4301 14.8867 18.4289 14.8879 18.4281C14.8884 18.4277 14.8889 18.4273 14.8893 18.427C14.8895 18.4269 14.8897 18.4268 14.8898 18.4267C14.8899 18.4266 14.89 18.4265 14.89 18.4265C14.8901 18.4265 14.8902 18.4264 14.4507 17.8187Z" fill="#DEDEDE"/>
</svg>
