<svg width="140" height="80" viewBox="0 0 140 80" fill="none" xmlns="http://www.w3.org/2000/svg">
<path d="M79.9293 41.0566C78.6912 41.0139 77.6666 40.8858 76.8554 40.6724C76.0869 40.4162 75.4679 40.0747 74.9983 39.6477C74.5287 39.1781 74.1871 38.6018 73.9737 37.9187C73.8029 37.1929 73.6962 36.3391 73.6535 35.3571C73.6535 34.9729 73.6321 34.3538 73.5894 33.5C73.5894 32.6034 73.5894 31.6215 73.5894 30.5542C73.5894 29.4442 73.5681 28.2915 73.5254 27.0961C73.5254 25.9007 73.5254 24.748 73.5254 23.638C73.5254 22.528 73.5254 21.546 73.5254 20.6922C73.5254 19.8383 73.5254 19.1979 73.5254 18.771C73.5254 17.1914 73.9523 16.0173 74.8062 15.2489C75.7027 14.4377 76.7914 14.0321 78.0722 14.0321C79.4383 14.0321 80.5483 14.4377 81.4022 15.2489C82.2987 16.0173 82.747 17.2127 82.747 18.8351V21.3326C83.5582 21.3326 84.5188 21.3326 85.6288 21.3326C86.7388 21.3326 87.8701 21.3326 89.0228 21.3326C90.1755 21.3326 91.3069 21.3326 92.4169 21.3326C93.5269 21.3326 94.4875 21.3326 95.2987 21.3326V18.4508C95.2987 16.9566 95.7469 15.8466 96.6435 15.1208C97.54 14.395 98.65 14.0321 99.9735 14.0321C101.254 14.0321 102.343 14.3737 103.239 15.0568C104.136 15.7398 104.584 16.7858 104.584 18.1947C104.584 18.7497 104.584 19.8383 104.584 21.4607C104.627 23.0403 104.648 24.748 104.648 26.5838C104.648 28.4196 104.648 30.17 104.648 31.835C104.648 33.4573 104.627 34.5886 104.584 35.229C104.542 36.211 104.414 37.0648 104.2 37.7906C103.987 38.4737 103.624 39.05 103.111 39.5197C102.599 39.9466 101.895 40.2881 100.998 40.5443C100.102 40.8004 98.9275 40.9499 97.476 40.9926C96.366 41.0779 95.0638 41.142 93.5696 41.1847C92.118 41.1847 90.6025 41.206 89.0228 41.2487C87.4859 41.2487 85.9276 41.2487 84.348 41.2487C82.7684 41.206 81.2955 41.142 79.9293 41.0566ZM82.747 32.2192C82.7897 32.9023 82.9178 33.3079 83.1312 33.4359C83.3447 33.564 83.8143 33.6494 84.5401 33.6921C85.9063 33.7348 87.3578 33.7561 88.8948 33.7561C90.4317 33.7561 91.8192 33.7134 93.0573 33.6281C93.5269 33.5854 93.9111 33.564 94.21 33.564C94.5088 33.5213 94.7436 33.4786 94.9144 33.4359C95.0852 33.3506 95.1919 33.2225 95.2346 33.0517C95.32 32.8382 95.3627 32.5607 95.3627 32.2192V28.3128C94.5515 28.3128 93.5909 28.3128 92.4809 28.3128C91.3709 28.2701 90.2182 28.2488 89.0228 28.2488C87.8701 28.2488 86.7388 28.2701 85.6288 28.3128C84.5188 28.3128 83.5582 28.3128 82.747 28.3128V32.2192ZM90.88 55.2092C90.88 53.288 91.2215 51.559 91.9046 50.022C92.6304 48.4851 93.6123 47.183 94.8504 46.1157C96.1312 45.0484 97.6681 44.2372 99.4612 43.6822C101.254 43.1272 103.239 42.8497 105.417 42.8497C107.423 42.8497 109.259 43.1272 110.924 43.6822C112.632 44.2372 114.083 45.0484 115.279 46.1157C116.517 47.183 117.477 48.4851 118.161 50.022C118.844 51.5163 119.185 53.2453 119.185 55.2092C119.185 56.9596 118.865 58.5819 118.225 60.0762C117.627 61.5704 116.73 62.8725 115.535 63.9826C114.34 65.0926 112.888 65.9678 111.18 66.6082C109.515 67.2485 107.594 67.5687 105.417 67.5687C103.239 67.5687 101.254 67.2485 99.4612 66.6082C97.7108 65.9678 96.1952 65.0926 94.9144 63.9826C93.6336 62.8725 92.6304 61.5704 91.9046 60.0762C91.2215 58.5819 90.88 56.9596 90.88 55.2092ZM100.358 55.0811C100.358 56.3192 100.806 57.3438 101.703 58.155C102.599 58.9235 103.773 59.3077 105.225 59.3077C106.719 59.3077 107.914 58.9235 108.811 58.155C109.75 57.3438 110.22 56.3192 110.22 55.0811C110.22 53.715 109.771 52.669 108.875 51.9432C107.978 51.1748 106.762 50.7905 105.225 50.7905C103.773 50.7905 102.599 51.1534 101.703 51.8792C100.806 52.5623 100.358 53.6296 100.358 55.0811ZM113.486 17.8745C113.4 16.0814 113.742 14.7366 114.51 13.84C115.322 12.9008 116.517 12.4312 118.097 12.4312C119.548 12.4312 120.722 12.8794 121.619 13.776C122.558 14.6298 123.07 16.0814 123.156 18.1306C123.241 20.3079 123.284 22.2505 123.284 23.9582C123.326 25.6232 123.348 27.2028 123.348 28.6971C123.348 30.1486 123.326 31.5361 123.284 32.8596C123.284 34.1831 123.262 35.5492 123.22 36.9581C123.134 39.0073 122.686 40.6297 121.875 41.8251C121.064 43.0205 119.847 43.6181 118.225 43.6181C116.602 43.6181 115.407 43.1485 114.638 42.2093C113.913 41.2274 113.614 39.6477 113.742 37.4704C113.785 36.3604 113.806 35.0156 113.806 33.4359C113.849 31.8563 113.849 30.1913 113.806 28.4409C113.806 26.6478 113.763 24.8334 113.678 22.9976C113.635 21.1618 113.571 19.4541 113.486 17.8745Z" fill="#F9502E"/>
<path d="M44.1359 67.1845C42.8978 67.1845 41.7238 66.7576 40.6138 65.9037C39.5465 65.0499 38.9701 63.7904 38.8847 62.1254C38.8847 61.6131 38.8634 60.9941 38.8207 60.2683C38.8207 59.5425 38.7993 58.7527 38.7567 57.8988C38.7567 57.045 38.7567 56.1484 38.7567 55.2092C38.7567 54.27 38.7567 53.3307 38.7567 52.3915C35.6401 52.3488 32.6089 52.2848 29.6631 52.1994C26.76 52.114 24.1344 51.9646 21.7863 51.7511C19.8225 51.5803 18.4563 51.1107 17.6878 50.3422C16.9194 49.5311 16.5778 48.5065 16.6632 47.2684C16.7486 46.0303 17.1542 45.027 17.8799 44.2585C18.6484 43.4474 20.0573 43.0845 22.1065 43.1699C25.5646 43.2979 29.1508 43.4047 32.8651 43.4901C36.622 43.5328 40.3576 43.5541 44.0719 43.5541C47.8288 43.5541 51.5431 43.5328 55.2147 43.4901C58.8862 43.4047 62.387 43.2766 65.7171 43.1058C67.8944 43.0204 69.41 43.426 70.2638 44.3226C71.1604 45.1764 71.6087 46.2651 71.6087 47.5886C71.6087 48.8266 71.2671 49.7872 70.584 50.4703C69.9437 51.1107 68.8123 51.5163 67.19 51.6871C65.3115 51.9005 62.814 52.0713 59.6974 52.1994C56.6235 52.2848 53.2508 52.3488 49.5793 52.3915C49.5366 53.7577 49.4939 55.1665 49.4512 56.6181C49.4512 58.0269 49.4512 59.3077 49.4512 60.4604C49.4512 61.6131 49.2804 62.595 48.9389 63.4062C48.64 64.2601 48.2344 64.9645 47.7221 65.5195C47.2525 66.0745 46.6975 66.4801 46.0571 66.7362C45.4167 67.0351 44.7763 67.1845 44.1359 67.1845ZM22.3627 30.6182C22.3627 28.9959 22.3627 27.6511 22.3627 26.5838C22.3627 25.5165 22.3627 24.5986 22.3627 23.8301C22.4054 23.0189 22.4267 22.2932 22.4267 21.6528C22.4694 21.0124 22.5334 20.2866 22.6188 19.4754C22.7469 18.0666 23.1952 17.0206 23.9636 16.3375C24.7321 15.6118 25.9915 15.2275 27.7419 15.1848C30.4316 15.1421 33.1853 15.0994 36.003 15.0568C38.8634 15.0141 41.7024 14.9927 44.5202 14.9927C47.3379 14.95 50.0916 14.95 52.7812 14.9927C55.4708 14.9927 58.0111 15.0568 60.4018 15.1848C62.1522 15.2702 63.4117 15.6544 64.1801 16.3375C64.9486 17.0206 65.3969 18.0666 65.525 19.4754C65.5677 20.2866 65.6103 21.0124 65.653 21.6528C65.6957 22.2932 65.7171 23.0189 65.7171 23.8301C65.7598 24.5986 65.7811 25.5165 65.7811 26.5838C65.7811 27.6511 65.7811 28.9959 65.7811 30.6182C65.7811 32.1552 65.6744 33.4573 65.4609 34.5246C65.2902 35.5492 64.9059 36.4031 64.3082 37.0862C63.7105 37.7266 62.8567 38.2175 61.7467 38.5591C60.6367 38.9006 59.1424 39.1354 57.2639 39.2635C55.6416 39.3489 53.7418 39.4129 51.5645 39.4556C49.3871 39.4983 47.1031 39.5196 44.7123 39.5196C42.3215 39.5196 39.9094 39.4983 37.4759 39.4556C35.0851 39.4129 32.8864 39.3702 30.8799 39.3275C29.0014 39.2848 27.5071 39.0927 26.3971 38.7512C25.2871 38.4096 24.4333 37.8973 23.8356 37.2142C23.2379 36.4885 22.8323 35.5919 22.6188 34.5246C22.4481 33.4573 22.3627 32.1552 22.3627 30.6182ZM32.0326 24.7907C31.9899 25.6018 31.9685 26.2636 31.9685 26.7759C32.0112 27.2455 32.0539 27.8859 32.0966 28.6971C32.182 29.5936 32.3741 30.1913 32.673 30.4901C33.0145 30.789 33.6762 30.9598 34.6582 31.0025C35.8962 31.0452 37.3265 31.0878 38.9488 31.1305C40.6138 31.1305 42.3001 31.1305 44.0079 31.1305C45.7583 31.1305 47.466 31.1305 49.131 31.1305C50.796 31.0878 52.2475 31.0452 53.4856 31.0025C54.4676 30.9598 55.1079 30.789 55.4068 30.4901C55.7483 30.1913 55.9618 29.5936 56.0472 28.6971C56.0899 27.8859 56.1112 27.2455 56.1112 26.7759C56.1539 26.2636 56.1539 25.6018 56.1112 24.7907C56.0685 24.3211 55.9618 24.0009 55.791 23.8301C55.663 23.6593 55.3214 23.5526 54.7664 23.5099C53.6564 23.4245 52.1195 23.3818 50.1556 23.3818C48.2344 23.3391 46.2065 23.3178 44.0719 23.3178C41.98 23.3178 39.9521 23.3391 37.9882 23.3818C36.0243 23.4245 34.4874 23.4672 33.3774 23.5099C32.8224 23.5526 32.4595 23.6593 32.2887 23.8301C32.1606 24.0009 32.0753 24.3211 32.0326 24.7907Z" fill="#F9502E"/>
</svg>
