<svg width="36" height="36" viewBox="0 0 36 36" fill="none" xmlns="http://www.w3.org/2000/svg">
<path fill-rule="evenodd" clip-rule="evenodd" d="M24.6673 9.2487C23.5167 9.2487 22.584 10.1814 22.584 11.332C22.584 12.4826 23.5167 13.4154 24.6673 13.4154C25.8179 13.4154 26.7507 12.4826 26.7507 11.332C26.7507 10.1814 25.8179 9.2487 24.6673 9.2487ZM20.084 11.332C20.084 8.80073 22.136 6.7487 24.6673 6.7487C27.1986 6.7487 29.2507 8.80073 29.2507 11.332C29.2507 13.8633 27.1986 15.9154 24.6673 15.9154C22.136 15.9154 20.084 13.8633 20.084 11.332Z" fill="#C4C4C4"/>
<path fill-rule="evenodd" clip-rule="evenodd" d="M17.905 0.0820316H18.0963C21.9436 0.0820101 24.9587 0.0819932 27.3111 0.398276C29.719 0.722008 31.6191 1.39758 33.1104 2.88893C34.6018 4.38027 35.2773 6.28031 35.6011 8.68821C35.9174 11.0407 35.9173 14.0558 35.9173 17.9031V18.0943C35.9173 21.9416 35.9174 24.9567 35.6011 27.3092C35.2773 29.7171 34.6018 31.6171 33.1104 33.1085C31.6191 34.5998 29.719 35.2754 27.3111 35.5991C24.9587 35.9154 21.9436 35.9154 18.0963 35.9154H17.905C14.0577 35.9154 11.0426 35.9154 8.69016 35.5991C6.28227 35.2754 4.38223 34.5998 2.89088 33.1085C1.39953 31.6171 0.723962 29.7171 0.400229 27.3092C0.0839463 24.9567 0.0839633 21.9417 0.0839847 18.0943V17.9031C0.0839633 14.0557 0.0839463 11.0407 0.400229 8.68821C0.723962 6.28031 1.39953 4.38027 2.89088 2.88893C4.38223 1.39758 6.28227 0.722008 8.69016 0.398276C11.0426 0.0819932 14.0577 0.0820101 17.905 0.0820316ZM4.65865 31.3407C3.70922 30.3913 3.1644 29.1067 2.87794 26.9761C2.62214 25.0735 2.58892 22.6462 2.58462 19.3989L5.07642 17.2186C6.09995 16.323 7.64256 16.3744 8.60424 17.3361L15.7538 24.4856C17.3287 26.0605 19.8078 26.2753 21.6301 24.9946L22.1271 24.6453C23.5574 23.6401 25.4925 23.7566 26.7919 24.9261L32.1644 29.7614C32.2229 29.814 32.285 29.8601 32.3498 29.8997C32.0804 30.4678 31.7485 30.9349 31.3427 31.3407C30.3932 32.2901 29.1087 32.8349 26.978 33.1214C24.8114 33.4127 21.9644 33.4154 18.0007 33.4154C14.0369 33.4154 11.1899 33.4127 9.02328 33.1214C6.89261 32.8349 5.60807 32.2901 4.65865 31.3407ZM9.02328 2.87598C6.89261 3.16244 5.60807 3.70726 4.65865 4.65669C3.70922 5.60612 3.1644 6.89065 2.87794 9.02133C2.63604 10.8205 2.59319 13.0888 2.58561 16.0761L3.43017 15.3372C5.44421 13.5749 8.47966 13.676 10.372 15.5683L17.5216 22.7179C18.2374 23.4337 19.3643 23.5313 20.1926 22.9492L20.6896 22.5999C23.0734 20.9246 26.2986 21.1187 28.4643 23.0678L33.0876 27.2288C33.0999 27.1459 33.1119 27.0617 33.1234 26.9761C33.4147 24.8094 33.4173 21.9624 33.4173 17.9987C33.4173 14.035 33.4147 11.188 33.1234 9.02133C32.8369 6.89065 32.2921 5.60612 31.3427 4.65669C30.3932 3.70726 29.1087 3.16244 26.978 2.87598C24.8114 2.58469 21.9644 2.58203 18.0007 2.58203C14.0369 2.58203 11.1899 2.58469 9.02328 2.87598Z" fill="#C4C4C4"/>
</svg>
