<svg width="20" height="24" viewBox="0 0 20 24" fill="none" xmlns="http://www.w3.org/2000/svg">
<circle cx="10" cy="10.9004" r="8" fill="#F9502E"/>
<mask id="mask0_1_4202" style="mask-type:alpha" maskUnits="userSpaceOnUse" x="10" y="2" width="8" height="20">
<rect width="8" height="18.2" transform="matrix(1 0 0 -1 10 21.1001)" fill="#D9D9D9"/>
</mask>
<g mask="url(#mask0_1_4202)">
<path d="M2 10.9004C2 17.5004 10 21.1004 10 21.1004C10 21.1004 18 17.5004 18 10.9004C18 6.48211 14.4183 2.90039 10 2.90039C5.58172 2.90039 2 6.48211 2 10.9004Z" fill="#F9502E"/>
</g>
<path d="M13.1327 8.45264C13.6419 8.45264 14.0709 8.79311 14.2069 9.2583C14.2136 9.28029 14.2192 9.30243 14.2245 9.32471C14.2267 9.33447 14.2294 9.34414 14.2314 9.354C14.2522 9.45408 14.2592 9.5561 14.2528 9.65771V10.8999C14.6569 10.7313 15.1399 10.8138 15.4657 11.145C15.8934 11.5799 15.8878 12.2788 15.453 12.7065L13.9257 14.2095C13.8502 14.2837 13.7653 14.343 13.6767 14.3911C13.6721 14.3937 13.6676 14.3964 13.663 14.3989C13.6511 14.4052 13.6389 14.4107 13.6269 14.4165C13.4777 14.49 13.3103 14.5327 13.1327 14.5327C12.5143 14.5325 12.0136 14.031 12.0136 13.4126V12.2661L10.0644 14.1831C9.85978 14.4045 9.56826 14.5444 9.24307 14.5444C8.62451 14.5444 8.12295 14.0429 8.12295 13.4243V12.2417L6.12198 14.2104C5.68093 14.644 4.97166 14.6378 4.53799 14.1968C4.10436 13.7557 4.11066 13.0465 4.55167 12.6128L8.44815 8.78076C8.78258 8.45194 9.27094 8.37655 9.67667 8.55127C10.0799 8.72075 10.3632 9.11968 10.3632 9.58447V10.7114L12.329 8.77881C12.5355 8.57579 12.8002 8.46857 13.0683 8.45557C13.0896 8.45435 13.1111 8.45264 13.1327 8.45264Z" fill="white"/>
</svg>
