<svg width="24" height="24" viewBox="0 0 24 24" fill="none" xmlns="http://www.w3.org/2000/svg">
<path d="M12.167 7C12.167 7.44313 12.1652 7.87604 12.2129 8.23047C12.2644 8.61367 12.3897 9.05085 12.7529 9.41406C13.1161 9.77728 13.5533 9.90258 13.9365 9.9541C14.291 10.0018 14.7239 10 15.167 10H20V16C20 18.8284 19.9998 20.2424 19.1211 21.1211C18.2424 21.9998 16.8284 22 14 22H10C7.17157 22 5.75759 21.9998 4.87891 21.1211C4.00023 20.2424 4 18.8284 4 16V8C4 5.17157 4.00023 3.75759 4.87891 2.87891C5.75759 2.00023 7.17157 2 10 2H12.167V7ZM8.5 16C7.94772 16 7.5 16.4477 7.5 17C7.5 17.5523 7.94772 18 8.5 18H13.167L13.2686 17.9951C13.773 17.9441 14.167 17.5179 14.167 17C14.167 16.4821 13.773 16.0559 13.2686 16.0049L13.167 16H8.5ZM8.5 12C7.94772 12 7.5 12.4477 7.5 13C7.5 13.5523 7.94772 14 8.5 14H15.5L15.6025 13.9951C16.1067 13.9438 16.5 13.5177 16.5 13C16.5 12.4823 16.1067 12.0562 15.6025 12.0049L15.5 12H8.5ZM14.167 2.0127C14.4883 2.02776 14.7196 2.06255 14.9365 2.15234C15.3041 2.30458 15.5938 2.59381 16.1719 3.17188L18.8281 5.82812C19.4062 6.40619 19.6954 6.69593 19.8477 7.06348C19.9523 7.31627 19.983 7.58856 19.9932 8H15.167C14.6675 8 14.3933 7.9982 14.2031 7.97266C14.2005 7.9723 14.1978 7.97106 14.1953 7.9707C14.195 7.96854 14.1946 7.96612 14.1943 7.96387C14.1688 7.77368 14.167 7.49949 14.167 7V2.0127Z" fill="#FF4F64"/>
</svg>
