<svg width="24" height="24" viewBox="0 0 24 24" fill="none" xmlns="http://www.w3.org/2000/svg">
<path d="M11 13.8867V21.8398C10.683 21.6713 10.3111 21.4337 9.83106 21.124L4.83105 17.8984C3.93544 17.3206 3.48793 17.0312 3.24414 16.584C3.00035 16.1366 3 15.6033 3 14.5371V9.60547C3 8.94047 2.99939 8.48279 3.05859 8.12402L11 13.8867ZM20.9404 8.12402C20.9997 8.48281 21 8.94038 21 9.60547V14.5371C21 15.6033 20.9997 16.1366 20.7559 16.584C20.5121 17.0312 20.0646 17.3206 19.1689 17.8984L14.1689 21.124C13.6889 21.4337 13.317 21.6713 13 21.8398V13.8867L20.9404 8.12402ZM12 2C12.5892 2 13.1161 2.33926 14.1689 3.01855L19.1689 6.24512C19.3554 6.36543 19.522 6.47394 19.6719 6.57324L12 12.1416L4.32715 6.57324C4.47718 6.47381 4.64429 6.36561 4.83105 6.24512L9.83106 3.01855C10.8839 2.33926 11.4108 2 12 2Z" fill="#F9502E"/>
</svg>
