<svg width="98" height="39" viewBox="0 0 98 39" fill="none" xmlns="http://www.w3.org/2000/svg">
<g filter="url(#filter0_d_1_4238)">
<g clip-path="url(#clip0_1_4238)">
<path d="M18.008 8.67578C18.6562 8.67582 19.2821 8.91192 19.7689 9.33995L19.8972 9.46078L20.4789 10.0424C20.6385 10.201 20.8469 10.3012 21.0705 10.3266L21.183 10.3333H22.0164C22.6974 10.3332 23.3526 10.5938 23.8477 11.0614C24.3427 11.529 24.6401 12.1684 24.6789 12.8483L24.683 12.9999V13.8333C24.683 14.0583 24.7597 14.2774 24.898 14.4524L24.973 14.5358L25.5539 15.1174C26.0353 15.5962 26.316 16.2405 26.3388 16.919C26.3615 17.5975 26.1246 18.2592 25.6764 18.7691L25.5555 18.8974L24.9739 19.4791C24.8153 19.6387 24.7151 19.8472 24.6897 20.0708L24.683 20.1833V21.0166C24.6831 21.6976 24.4226 22.3529 23.9549 22.8479C23.4873 23.343 22.8479 23.6404 22.168 23.6791L22.0164 23.6833H21.183C20.9583 23.6834 20.7402 23.7591 20.5639 23.8983L20.4805 23.9733L19.8989 24.5541C19.4202 25.0355 18.7758 25.3163 18.0973 25.339C17.4188 25.3618 16.7571 25.1249 16.2472 24.6766L16.1189 24.5558L15.5372 23.9741C15.3776 23.8155 15.1691 23.7154 14.9455 23.6899L14.833 23.6833H13.9997C13.3187 23.6833 12.6635 23.4228 12.1684 22.9552C11.6733 22.4875 11.3759 21.8482 11.3372 21.1683L11.333 21.0166V20.1833C11.333 19.9586 11.2572 19.7405 11.118 19.5641L11.043 19.4808L10.4622 18.8991C9.98076 18.4204 9.70004 17.7761 9.67728 17.0976C9.65452 16.419 9.89142 15.7573 10.3397 15.2474L10.4605 15.1191L11.0422 14.5374C11.2008 14.3778 11.3009 14.1694 11.3264 13.9458L11.333 13.8333V12.9999L11.3372 12.8483C11.3744 12.1945 11.6509 11.5772 12.1139 11.1142C12.577 10.6511 13.1942 10.3747 13.848 10.3374L13.9997 10.3333H14.833C15.0577 10.3332 15.2758 10.2575 15.4522 10.1183L15.5355 10.0433L16.1172 9.46245C16.365 9.21319 16.6596 9.01537 16.9841 8.88036C17.3086 8.74536 17.6566 8.67583 18.008 8.67578ZM21.0889 14.7441C20.9326 14.5879 20.7207 14.5001 20.4997 14.5001C20.2787 14.5001 20.0668 14.5879 19.9105 14.7441L17.1664 17.4874L16.0889 16.4108L16.0105 16.3416C15.843 16.2121 15.6325 16.1512 15.4218 16.1713C15.211 16.1914 15.0158 16.2909 14.8757 16.4497C14.7357 16.6085 14.6614 16.8147 14.6678 17.0263C14.6743 17.2379 14.7611 17.4391 14.9105 17.5891L16.5772 19.2558L16.6555 19.3249C16.8159 19.4493 17.0161 19.5109 17.2186 19.4982C17.4211 19.4855 17.612 19.3993 17.7555 19.2558L21.0889 15.9224L21.158 15.8441C21.2824 15.6838 21.344 15.4836 21.3313 15.281C21.3185 15.0785 21.2323 14.8876 21.0889 14.7441Z" fill="#F9502E"/>
</g>
<path d="M43.7969 10.2344V14.2969H45.6094V15.9375H43.7969V19.8906H41.7969V10.2344H43.7969ZM32.2656 18.0625C33.3047 18.0625 34.4844 18.0625 35.7188 18.0312V17.2344C34.1719 17.0156 33.2109 16.2578 33.2188 15.1719C33.2109 13.8516 34.5938 13.0391 36.7031 13.0469C38.7969 13.0391 40.1797 13.8516 40.1875 15.1719C40.1797 16.2578 39.2266 17.0078 37.7031 17.2266V17.9609C38.875 17.8984 40.0469 17.8125 41.1406 17.6719L41.2812 19.0469C38.2734 19.5781 34.9766 19.6094 32.4688 19.6094L32.2656 18.0625ZM32.6406 12.7188V11.2656H35.7188V10.1094H37.7031V11.2656H40.7812V12.7188H32.6406ZM34.0781 22V20.4688H43.7969V24.4375H41.7969V22H34.0781ZM35.125 15.1719C35.1172 15.6875 35.6875 15.9922 36.7031 15.9844C37.7031 15.9922 38.2734 15.6875 38.2812 15.1719C38.2734 14.6172 37.7031 14.375 36.7031 14.375C35.6875 14.375 35.1172 14.6172 35.125 15.1719ZM58.2344 10.2188V18.6562H56.25V15.2969H54.0312V13.6875H56.25V10.2188H58.2344ZM46.1562 17.0938C48.4844 16.3125 49.5469 14.4531 49.5938 12.6719H46.7344V11.0781H54.4531V12.6719H51.625C51.6641 14.3281 52.6797 16 54.8906 16.7344L53.9062 18.2969C52.3438 17.7891 51.2578 16.7578 50.6406 15.4844C50.0156 16.9297 48.875 18.0938 47.1875 18.6719L46.1562 17.0938ZM48.4844 21.7188C48.4844 19.9922 50.3438 18.9766 53.375 18.9688C56.4141 18.9766 58.2734 19.9922 58.2812 21.7188C58.2734 23.4453 56.4141 24.4531 53.375 24.4531C50.3438 24.4531 48.4844 23.4453 48.4844 21.7188ZM50.4688 21.7188C50.4688 22.5312 51.4922 22.9375 53.375 22.9375C55.2656 22.9375 56.2891 22.5312 56.2969 21.7188C56.2891 20.8984 55.2656 20.4922 53.375 20.5C51.4922 20.4922 50.4688 20.8984 50.4688 21.7188ZM72.0469 10.2344V20.7188H70.0781V17.75H66.8281V16.1562H70.0781V14.5625H67.0312C66.0234 16.7266 63.9609 18.3359 61.0938 19.1875L60.2656 17.6406C63.2969 16.6797 65.1953 14.9844 65.5469 12.8906H61.0312V11.2969H67.7344C67.7344 11.875 67.6719 12.4375 67.5625 12.9688H70.0781V10.2344H72.0469ZM62.6875 24.1875V19.6719H64.7188V22.5938H72.4219V24.1875H62.6875ZM82.1094 11.0156V12.5938H79.2812C79.2891 14.2656 80.3047 15.9922 82.5469 16.7344L81.5625 18.2656C79.9922 17.7734 78.9062 16.7422 78.2891 15.4688C77.6562 16.8828 76.5234 18.0234 74.8438 18.5625L73.8281 16.9844C76.1719 16.2422 77.2344 14.3594 77.25 12.5938H74.3906V11.0156H82.1094ZM76.125 20.9062V19.3125H85.8906V24.4375H83.9062V20.9062H76.125ZM81.7031 15.2656V13.6406H83.9062V10.2188H85.8906V18.6875H83.9062V15.2656H81.7031Z" fill="#F9502E"/>
</g>
<defs>
<filter id="filter0_d_1_4238" x="-4" y="-4" width="112" height="50" filterUnits="userSpaceOnUse" color-interpolation-filters="sRGB">
<feFlood flood-opacity="0" result="BackgroundImageFix"/>
<feColorMatrix in="SourceAlpha" type="matrix" values="0 0 0 0 0 0 0 0 0 0 0 0 0 0 0 0 0 0 127 0" result="hardAlpha"/>
<feOffset dx="4" dy="4"/>
<feGaussianBlur stdDeviation="4"/>
<feComposite in2="hardAlpha" operator="out"/>
<feColorMatrix type="matrix" values="0 0 0 0 0.850635 0 0 0 0 0.850635 0 0 0 0 0.850635 0 0 0 0.1 0"/>
<feBlend mode="normal" in2="BackgroundImageFix" result="effect1_dropShadow_1_4238"/>
<feBlend mode="normal" in="SourceGraphic" in2="effect1_dropShadow_1_4238" result="shape"/>
</filter>
<clipPath id="clip0_1_4238">
<rect width="20" height="20" fill="white" transform="translate(8 7)"/>
</clipPath>
</defs>
</svg>
