<svg width="132" height="48" viewBox="0 0 132 48" fill="none" xmlns="http://www.w3.org/2000/svg">
<g filter="url(#filter0_d_1_5902)">
<rect x="4" y="4" width="116" height="32" rx="6" fill="#FFEEF0" shape-rendering="crispEdges"/>
<path d="M19.125 15.6006L19.1299 16.2422C19.1351 16.4435 19.1455 16.6309 19.168 16.7979C19.2158 17.1532 19.3288 17.529 19.6377 17.8379C19.9466 18.1467 20.3224 18.2589 20.6777 18.3066C21.0116 18.3515 21.4248 18.3506 21.875 18.3506H25V23.2002C25 25.4628 24.9998 26.594 24.3408 27.2969C23.6818 27.9998 22.6213 28 20.5 28H17.5C15.3787 28 14.3182 27.9998 13.6592 27.2969C13.0002 26.594 13 25.4628 13 23.2002V16.7998C13 14.5372 13.0002 13.406 13.6592 12.7031C14.3182 12.0002 15.3787 12 17.5 12H19.125V15.6006ZM16.375 23.25C15.9608 23.25 15.625 23.5858 15.625 24C15.625 24.4142 15.9608 24.75 16.375 24.75H19.875C20.2892 24.75 20.625 24.4142 20.625 24C20.625 23.5858 20.2892 23.25 19.875 23.25H16.375ZM16.375 20.0498C15.9608 20.0498 15.6251 20.3857 15.625 20.7998C15.625 21.214 15.9608 21.5498 16.375 21.5498H21.625L21.7021 21.5459C22.0801 21.5073 22.375 21.188 22.375 20.7998C22.3749 20.4117 22.0801 20.0923 21.7021 20.0537L21.625 20.0498H16.375ZM20.625 12.0107C20.8662 12.0228 21.0403 12.0501 21.2031 12.1221C21.4786 12.2439 21.6956 12.4753 22.1289 12.9375L24.1211 15.0625C24.5546 15.5249 24.7716 15.7567 24.8857 16.0508C24.9682 16.2632 24.9898 16.4928 24.9961 16.8506H21.875C21.3826 16.8506 21.0886 16.8486 20.8779 16.8203C20.7815 16.8073 20.7328 16.7922 20.7109 16.7832C20.706 16.7812 20.7021 16.7793 20.7002 16.7783C20.699 16.7777 20.6985 16.7767 20.6982 16.7764V16.7773C20.6981 16.7771 20.698 16.7759 20.6973 16.7744C20.6963 16.7726 20.6944 16.7694 20.6924 16.7646C20.6834 16.7429 20.6682 16.694 20.6553 16.5977C20.6411 16.4922 20.6328 16.3657 20.6289 16.2041L20.625 15.6006V12.0107Z" fill="#FF4F64"/>
<path d="M38.0723 17.3711C38.0723 19.3945 39.2617 21.5273 41.2578 22.3613L40.4238 23.5645C38.9609 22.9287 37.8945 21.6367 37.3271 20.0645C36.7598 21.7598 35.6729 23.1816 34.2305 23.8652L33.3555 22.6758C35.3037 21.7734 36.5205 19.4697 36.5273 17.3711V16.332H33.8066V15.0742H40.7793V16.332H38.0723V17.3711ZM42.1602 26.2168V13.8574H43.6914V26.2168H42.1602ZM55.8594 13.8574V21.1992H54.3418V18.1777H52.2363V16.9336H54.3418V13.8574H55.8594ZM45.4688 19.9688C47.458 19.2852 48.5039 17.624 48.5039 15.9902V15.8945H45.9336V14.6641H52.6055V15.8945H50.0488V15.9766C50.0488 17.4805 51.0469 18.998 52.9609 19.6406L52.1953 20.8438C50.8213 20.3789 49.8506 19.4355 49.3037 18.2734C48.7637 19.5859 47.7314 20.6523 46.2617 21.1719L45.4688 19.9688ZM47.4785 23.8652C47.4648 22.3818 49.0713 21.5137 51.6758 21.5137C54.2939 21.5137 55.8936 22.3818 55.9004 23.8652C55.8936 25.3486 54.2939 26.21 51.6758 26.2168C49.0713 26.21 47.4648 25.3486 47.4785 23.8652ZM48.9824 23.8652C48.9756 24.6309 49.96 25.0479 51.6758 25.041C53.4053 25.0479 54.3828 24.6309 54.3828 23.8652C54.3828 23.0928 53.4053 22.6758 51.6758 22.6758C49.96 22.6758 48.9756 23.0928 48.9824 23.8652ZM71.2812 13.8711V23.0039H69.7637V20.3105H66.7832V19.0664H69.7637V17.5352H66.9473C66.0723 19.4355 64.2539 20.8574 61.752 21.623L61.1094 20.4336C63.8301 19.5586 65.5869 17.9932 65.8672 16.0312H61.752V14.8145H67.5352C67.5352 15.334 67.4736 15.833 67.3711 16.3047H69.7637V13.8711H71.2812ZM63.2285 25.9707V22.1016H64.7734V24.7402H71.5957V25.9707H63.2285ZM77.5703 15.9766C77.5703 17.4873 78.5684 18.998 80.4824 19.6406L79.7168 20.8164C78.3359 20.3652 77.3584 19.4287 76.8184 18.2666C76.2783 19.5586 75.2529 20.5977 73.7832 21.0898L73.0039 19.8867C74.9727 19.2373 76.0254 17.5967 76.0254 15.9902V15.8262H73.4551V14.6094H80.127V15.8262H77.5703V15.9766ZM74.959 23.0312V21.8145H83.3809V26.2168H81.8633V23.0312H74.959ZM79.7578 18.1641V16.9199H81.8633V13.8574H83.3809V21.2266H81.8633V18.1641H79.7578ZM99.7461 23.4688V24.7129H88.4531V23.4688H91.0645V20.3447C90.0801 19.7773 89.4854 18.8887 89.4922 17.7949C89.4854 15.8262 91.4131 14.5273 94.0723 14.5273C96.7451 14.5273 98.6865 15.8262 98.6797 17.7949C98.6865 18.875 98.1055 19.7432 97.1484 20.3105V23.4688H99.7461ZM90.9824 17.7949C90.9756 19.0596 92.2266 19.8662 94.0723 19.8594C95.9111 19.8662 97.1895 19.0596 97.1895 17.7949C97.1895 16.5098 95.9111 15.7236 94.0723 15.7305C92.2266 15.7236 90.9756 16.5098 90.9824 17.7949ZM92.5684 23.4688H95.6035V20.8916C95.1318 20.9941 94.6191 21.0488 94.0723 21.0488C93.5391 21.0488 93.0332 20.9941 92.5684 20.8984V23.4688ZM104.996 16.4961C104.989 17.8496 106.049 19.1826 107.99 19.709L107.279 20.8848C105.857 20.4951 104.832 19.668 104.265 18.5947C103.725 19.8047 102.699 20.7617 101.223 21.1992L100.512 20.0234C102.446 19.4355 103.479 17.9863 103.479 16.4961V16.4277H100.895V15.2246H103.479V13.8027H105.01V15.2246H107.58V16.4277H104.996V16.4961ZM102.521 23.8789C102.508 22.4092 104.121 21.582 106.719 21.582C109.33 21.582 110.937 22.4092 110.943 23.8789C110.937 25.3486 109.33 26.2031 106.719 26.2031C104.121 26.2031 102.508 25.3486 102.521 23.8789ZM104.025 23.8789C104.019 24.6104 105.003 25.0273 106.719 25.0273C108.469 25.0273 109.426 24.6104 109.426 23.8789C109.426 23.1406 108.469 22.751 106.719 22.7441C105.003 22.751 104.019 23.1406 104.025 23.8789ZM107.211 18.4785V17.248H109.385V13.8574H110.902V21.3359H109.385V18.4785H107.211Z" fill="#FF4F64"/>
</g>
<defs>
<filter id="filter0_d_1_5902" x="0" y="0" width="132" height="48" filterUnits="userSpaceOnUse" color-interpolation-filters="sRGB">
<feFlood flood-opacity="0" result="BackgroundImageFix"/>
<feColorMatrix in="SourceAlpha" type="matrix" values="0 0 0 0 0 0 0 0 0 0 0 0 0 0 0 0 0 0 127 0" result="hardAlpha"/>
<feOffset dx="4" dy="4"/>
<feGaussianBlur stdDeviation="4"/>
<feComposite in2="hardAlpha" operator="out"/>
<feColorMatrix type="matrix" values="0 0 0 0 0.850635 0 0 0 0 0.850635 0 0 0 0 0.850635 0 0 0 0.1 0"/>
<feBlend mode="normal" in2="BackgroundImageFix" result="effect1_dropShadow_1_5902"/>
<feBlend mode="normal" in="SourceGraphic" in2="effect1_dropShadow_1_5902" result="shape"/>
</filter>
</defs>
</svg>
