<svg width="54" height="15" viewBox="0 0 54 15" fill="none" xmlns="http://www.w3.org/2000/svg">
<path d="M12.2969 0.28125V10.7188H10.5625V7.64062H7.15625V6.21875H10.5625V4.46875H7.34375C6.34375 6.64062 4.26562 8.26562 1.40625 9.14062L0.671875 7.78125C3.78125 6.78125 5.78906 4.99219 6.10938 2.75H1.40625V1.35938H8.01562C8.01562 1.95312 7.94531 2.52344 7.82812 3.0625H10.5625V0.28125H12.2969ZM3.09375 14.1094V9.6875H4.85938V12.7031H12.6562V14.1094H3.09375ZM19.4844 2.6875C19.4844 4.41406 20.625 6.14062 22.8125 6.875L21.9375 8.21875C20.3594 7.70312 19.2422 6.63281 18.625 5.30469C18.0078 6.78125 16.8359 7.96875 15.1562 8.53125L14.2656 7.15625C16.5156 6.41406 17.7188 4.53906 17.7188 2.70312V2.51562H14.7812V1.125H22.4062V2.51562H19.4844V2.6875ZM16.5 10.75V9.35938H26.125V14.3906H24.3906V10.75H16.5ZM21.9844 5.1875V3.76562H24.3906V0.265625H26.125V8.6875H24.3906V5.1875H21.9844ZM40.2812 0.265625V14.3906H38.625V7.1875H37.0312V13.6719H35.4375V0.53125H37.0312V5.79688H38.625V0.265625H40.2812ZM28.5625 11.0938V1.9375H33.8438V3.34375H30.3125V9.625C31.8438 9.60938 33.1094 9.53125 34.5469 9.26562L34.6719 10.6875C32.9609 11.0312 31.4844 11.0781 29.5156 11.0938H28.5625ZM53.75 0.265625V14.3906H52V0.265625H53.75ZM42.0469 10.5C45.75 8.74219 47.4531 6.35156 47.7656 3.14062H42.7656V1.76562H49.5312C49.5312 5.96875 47.8984 9.53906 42.9531 11.8906L42.0469 10.5Z" fill="#ABABAB"/>
</svg>
