<svg width="101" height="48" viewBox="0 0 101 48" fill="none" xmlns="http://www.w3.org/2000/svg">
<g filter="url(#filter0_d_1_5893)">
<rect x="4" y="4" width="85" height="32" rx="6" fill="#FEEEEA" shape-rendering="crispEdges"/>
<path d="M18.25 22.0166V28.0811C17.8845 27.9195 17.4564 27.6505 16.8564 27.2695L13.8564 25.3652C12.9489 24.789 12.4944 24.5007 12.2471 24.0508C11.9998 23.6009 12 23.0632 12 21.9883V19.2734C12 18.499 12.0013 18.0039 12.0938 17.6191L18.25 22.0166ZM25.9053 17.6191C25.9978 18.0039 26 18.4989 26 19.2734V21.9883C26 23.0632 26.0002 23.6009 25.7529 24.0508C25.5057 24.5006 25.052 24.7891 24.1445 25.3652L21.1436 27.2695C20.5436 27.6505 20.1155 27.9195 19.75 28.0811V22.0166L25.9053 17.6191ZM19 13C19.5812 13 20.102 13.3309 21.1436 13.9922L24.1436 15.8975C24.4785 16.1101 24.7518 16.2836 24.9756 16.4404L19 20.709L13.0234 16.4404C13.2473 16.2835 13.5211 16.1104 13.8564 15.8975L16.8564 13.9922C17.898 13.3309 18.4188 13 19 13Z" fill="#F9502E"/>
<path d="M44.7031 23.4551V24.6855H33.4102V23.4551H38.25V20.5977H39.7539V23.4551H44.7031ZM33.7383 19.6406C36.3223 19.2236 38.1748 17.3711 38.1816 15.5117V14.6094H39.7949V15.5117C39.7949 17.3779 41.6611 19.2236 44.2656 19.6406L43.6094 20.8984C41.5244 20.502 39.8086 19.3057 38.9883 17.6855C38.1748 19.2988 36.4795 20.5088 34.3945 20.8984L33.7383 19.6406ZM52.4414 15.0879V16.291H45.5371V15.0879H48.2988V13.748H49.8164V15.0879H52.4414ZM46.1797 19.0938C46.1729 17.7129 47.3486 16.7832 49.0371 16.7832C50.7188 16.7832 51.9287 17.7129 51.9355 19.0938C51.9287 20.4678 50.7188 21.377 49.0371 21.377C47.3486 21.377 46.1729 20.4678 46.1797 19.0938ZM47.4785 24.0566C47.4785 22.6963 49.085 21.9033 51.7031 21.9102C54.3145 21.9033 55.9209 22.6963 55.9277 24.0566C55.9209 25.3965 54.3145 26.2031 51.7031 26.2031C49.085 26.2031 47.4785 25.3965 47.4785 24.0566ZM47.6016 19.0938C47.5947 19.8184 48.1621 20.2422 49.0371 20.2422C49.9121 20.2422 50.5137 19.8184 50.5137 19.0938C50.5137 18.3555 49.9121 17.918 49.0371 17.918C48.1621 17.918 47.5947 18.3555 47.6016 19.0938ZM49.0781 24.0566C49.0713 24.6992 50.0352 25.0479 51.7031 25.041C53.3574 25.0479 54.3008 24.6992 54.3008 24.0566C54.3008 23.4004 53.3574 23.0723 51.7031 23.0723C50.0352 23.0723 49.0713 23.4004 49.0781 24.0566ZM52.5098 20.3242V19.1074H54.3418V17.8906H52.5234V16.6602H54.3418V13.8574H55.8594V21.7734H54.3418V20.3242H52.5098ZM67.8906 13.8574V26.2305H66.3594V13.8574H67.8906ZM58.0059 19.1211C57.999 16.4551 59.3594 14.7598 61.2324 14.7598C63.085 14.7598 64.4521 16.4551 64.459 19.1211C64.4521 21.8076 63.085 23.4961 61.2324 23.4961C59.3594 23.4961 57.999 21.8076 58.0059 19.1211ZM59.4688 19.1211C59.4688 21.0215 60.1865 22.1221 61.2324 22.1289C62.2715 22.1221 62.9824 21.0215 62.9824 19.1211C62.9824 17.2344 62.2715 16.127 61.2324 16.127C60.1865 16.127 59.4688 17.2344 59.4688 19.1211ZM74.125 16.8242C74.1113 19.0322 75.2188 21.2607 77.1328 22.1836L76.2031 23.4004C74.8633 22.7236 73.8994 21.418 73.373 19.8457C72.833 21.5273 71.8213 22.9219 70.4062 23.6328L69.4766 22.416C71.4658 21.4727 72.6006 19.1074 72.6074 16.8242V14.8555H74.125V16.8242ZM77.8711 26.2168V13.8574H79.3887V18.6973H81.2891V19.9961H79.3887V26.2168H77.8711Z" fill="#F9502E"/>
</g>
<defs>
<filter id="filter0_d_1_5893" x="0" y="0" width="101" height="48" filterUnits="userSpaceOnUse" color-interpolation-filters="sRGB">
<feFlood flood-opacity="0" result="BackgroundImageFix"/>
<feColorMatrix in="SourceAlpha" type="matrix" values="0 0 0 0 0 0 0 0 0 0 0 0 0 0 0 0 0 0 127 0" result="hardAlpha"/>
<feOffset dx="4" dy="4"/>
<feGaussianBlur stdDeviation="4"/>
<feComposite in2="hardAlpha" operator="out"/>
<feColorMatrix type="matrix" values="0 0 0 0 0.850635 0 0 0 0 0.850635 0 0 0 0 0.850635 0 0 0 0.1 0"/>
<feBlend mode="normal" in2="BackgroundImageFix" result="effect1_dropShadow_1_5893"/>
<feBlend mode="normal" in="SourceGraphic" in2="effect1_dropShadow_1_5893" result="shape"/>
</filter>
</defs>
</svg>
